Merritest-Heavy.ufo
<glyph name="exclam" format="1">
  <advance width="813"/>
  <unicode hex="0021"/>
  <outline>
    <contour>
      <point x="311" y="568" type="line"/>
      <point x="167" y="1780" type="line"/>
      <point x="646" y="1780" type="line"/>
      <point x="493" y="568" type="line"/>
    </contour>
    <contour>
      <point x="179" y="154" type="curve" smooth="yes"/>
      <point x="179" y="283"/>
      <point x="308" y="381"/>
      <point x="417" y="381" type="curve" smooth="yes"/>
      <point x="558" y="381"/>
      <point x="624" y="294"/>
      <point x="624" y="187" type="curve" smooth="yes"/>
      <point x="624" y="51"/>
      <point x="500" y="-32"/>
      <point x="382" y="-32" type="curve" smooth="yes"/>
      <point x="281" y="-32"/>
      <point x="179" y="35"/>
    </contour>
  </outline>
</glyph>
<glyph name="quotedbl" format="1">
  <advance width="1261"/>
  <unicode hex="0022"/>
  <outline>
    <contour>
      <point x="807" y="956" type="line"/>
      <point x="722" y="1782" type="line"/>
      <point x="1087" y="1782" type="line"/>
      <point x="1002" y="956" type="line"/>
    </contour>
    <contour>
      <point x="259" y="956" type="line"/>
      <point x="174" y="1782" type="line"/>
      <point x="539" y="1782" type="line"/>
      <point x="454" y="956" type="line"/>
    </contour>
  </outline>
</glyph>
<glyph name="ampersand" format="1">
  <advance width="1592"/>
  <unicode hex="0026"/>
  <outline>
    <contour>
      <point x="82" y="386" type="curve" smooth="yes"/>
      <point x="82" y="594"/>
      <point x="239" y="688"/>
      <point x="420" y="761" type="curve"/>
      <point x="330" y="879"/>
      <point x="238" y="1002"/>
      <point x="242" y="1155" type="curve" smooth="yes"/>
      <point x="249" y="1423"/>
      <point x="498" y="1552"/>
      <point x="717" y="1552" type="curve" smooth="yes"/>
      <point x="969" y="1552"/>
      <point x="1168" y="1419"/>
      <point x="1168" y="1212" type="curve" smooth="yes"/>
      <point x="1168" y="1031"/>
      <point x="1027" y="861"/>
      <point x="812" y="765" type="curve"/>
      <point x="907" y="641"/>
      <point x="1057" y="470"/>
      <point x="1144" y="379" type="curve"/>
      <point x="1155" y="366" type="line"/>
      <point x="1163" y="413"/>
      <point x="1162" y="462"/>
      <point x="1162" y="507" type="curve" smooth="yes"/>
      <point x="1162" y="634"/>
      <point x="1139" y="709"/>
      <point x="1124" y="738" type="curve"/>
      <point x="1437" y="738" type="line"/>
      <point x="1449" y="731"/>
      <point x="1475" y="693"/>
      <point x="1475" y="562" type="curve" smooth="yes"/>
      <point x="1475" y="447"/>
      <point x="1425" y="313"/>
      <point x="1336" y="214" type="curve"/>
      <point x="1402" y="173"/>
      <point x="1464" y="153"/>
      <point x="1520" y="153" type="curve"/>
      <point x="1520" y="13" type="line"/>
      <point x="1471" y="-13"/>
      <point x="1386" y="-22"/>
      <point x="1300" y="-16" type="curve"/>
      <point x="1230" y="-10"/>
      <point x="1165" y="0"/>
      <point x="1081" y="42" type="curve"/>
      <point x="993" y="-1"/>
      <point x="886" y="-28"/>
      <point x="736" y="-28" type="curve" smooth="yes"/>
      <point x="311" y="-28"/>
      <point x="82" y="122"/>
    </contour>
    <contour>
      <point x="720" y="889" type="curve"/>
      <point x="836" y="966"/>
      <point x="859" y="1076"/>
      <point x="859" y="1229" type="curve" smooth="yes"/>
      <point x="859" y="1315"/>
      <point x="820" y="1415"/>
      <point x="711" y="1415" type="curve" smooth="yes"/>
      <point x="651" y="1415"/>
      <point x="580" y="1383"/>
      <point x="562" y="1264" type="curve" smooth="yes"/>
      <point x="536" y="1096"/>
      <point x="655" y="965"/>
    </contour>
    <contour>
      <point x="427" y="438" type="curve" smooth="yes"/>
      <point x="427" y="203"/>
      <point x="594" y="135"/>
      <point x="759" y="135" type="curve" smooth="yes"/>
      <point x="823" y="135"/>
      <point x="878" y="138"/>
      <point x="925" y="147" type="curve"/>
      <point x="803" y="257"/>
      <point x="642" y="456"/>
      <point x="527" y="614" type="curve"/>
      <point x="474" y="571"/>
      <point x="427" y="507"/>
    </contour>
  </outline>
</glyph>
<glyph name="parenleft" format="1">
  <advance width="1011"/>
  <unicode hex="0028"/>
  <outline>
    <contour>
      <point x="160" y="712" type="curve" smooth="yes"/>
      <point x="160" y="1372"/>
      <point x="595" y="1722"/>
      <point x="694" y="1773" type="curve"/>
      <point x="837" y="1661" type="line"/>
      <point x="755" y="1605"/>
      <point x="512" y="1379"/>
      <point x="494" y="768" type="curve" smooth="yes"/>
      <point x="477" y="189"/>
      <point x="762" y="-165"/>
      <point x="866" y="-237" type="curve"/>
      <point x="715" y="-352" type="line"/>
      <point x="616" y="-297"/>
      <point x="160" y="-44"/>
    </contour>
  </outline>
</glyph>
<glyph name="parenright" format="1">
  <advance width="1011"/>
  <unicode hex="0029"/>
  <outline>
    <contour>
      <point x="174" y="-250" type="line"/>
      <point x="256" y="-194"/>
      <point x="499" y="32"/>
      <point x="517" y="643" type="curve" smooth="yes"/>
      <point x="534" y="1222"/>
      <point x="249" y="1576"/>
      <point x="145" y="1648" type="curve"/>
      <point x="296" y="1763" type="line"/>
      <point x="395" y="1708"/>
      <point x="851" y="1455"/>
      <point x="851" y="699" type="curve" smooth="yes"/>
      <point x="851" y="39"/>
      <point x="416" y="-311"/>
      <point x="317" y="-362" type="curve"/>
    </contour>
  </outline>
</glyph>
<glyph name="asterisk" format="1">
  <advance width="1240"/>
  <unicode hex="002A"/>
  <outline>
    <contour>
      <point x="472" y="755" type="line"/>
      <point x="493" y="1068" type="line"/>
      <point x="553" y="1193" type="line"/>
      <point x="463" y="1081" type="line"/>
      <point x="224" y="881" type="line"/>
      <point x="73" y="1084" type="line"/>
      <point x="383" y="1252" type="line"/>
      <point x="511" y="1274" type="line"/>
      <point x="386" y="1290" type="line"/>
      <point x="70" y="1434" type="line"/>
      <point x="220" y="1660" type="line"/>
      <point x="463" y="1460" type="line"/>
      <point x="553" y="1357" type="line"/>
      <point x="493" y="1490" type="line"/>
      <point x="472" y="1799" type="line"/>
      <point x="750" y="1798" type="line"/>
      <point x="729" y="1490" type="line"/>
      <point x="658" y="1357" type="line"/>
      <point x="753" y="1473" type="line"/>
      <point x="996" y="1657" type="line"/>
      <point x="1170" y="1432" type="line"/>
      <point x="827" y="1292" type="line"/>
      <point x="699" y="1274" type="line"/>
      <point x="828" y="1250" type="line"/>
      <point x="1165" y="1082" type="line"/>
      <point x="991" y="884" type="line"/>
      <point x="753" y="1081" type="line"/>
      <point x="661" y="1193" type="line"/>
      <point x="721" y="1068" type="line"/>
      <point x="750" y="755" type="line"/>
    </contour>
  </outline>
</glyph>
<glyph name="plus" format="1">
  <advance width="1320"/>
  <unicode hex="002B"/>
  <outline>
    <contour>
      <point x="529" y="342" type="line"/>
      <point x="529" y="534" type="line"/>
      <point x="539" y="722" type="line"/>
      <point x="384" y="712" type="line"/>
      <point x="173" y="712" type="line"/>
      <point x="173" y="968" type="line"/>
      <point x="384" y="968" type="line"/>
      <point x="539" y="958" type="line"/>
      <point x="529" y="1146" type="line"/>
      <point x="529" y="1358" type="line"/>
      <point x="791" y="1358" type="line"/>
      <point x="791" y="1146" type="line"/>
      <point x="781" y="958" type="line"/>
      <point x="936" y="968" type="line"/>
      <point x="1147" y="968" type="line"/>
      <point x="1147" y="712" type="line"/>
      <point x="936" y="712" type="line"/>
      <point x="781" y="722" type="line"/>
      <point x="791" y="534" type="line"/>
      <point x="791" y="342" type="line"/>
    </contour>
  </outline>
</glyph>
<glyph name="comma" format="1">
  <advance width="797"/>
  <unicode hex="002C"/>
  <outline>
    <contour>
      <point x="181" y="-15" type="curve"/>
      <point x="181" y="66" type="line"/>
      <point x="385" y="324" type="line"/>
      <point x="571" y="257"/>
      <point x="650" y="80"/>
      <point x="647" y="-78" type="curve" smooth="yes"/>
      <point x="641" y="-370"/>
      <point x="434" y="-536"/>
      <point x="257" y="-596" type="curve"/>
      <point x="180" y="-527" type="line"/>
      <point x="180" y="-472" type="line"/>
      <point x="250" y="-441"/>
      <point x="352" y="-361"/>
      <point x="352" y="-203" type="curve" smooth="yes"/>
      <point x="352" y="-111"/>
      <point x="273" y="-23"/>
    </contour>
  </outline>
</glyph>
<glyph name="hyphen" format="1">
  <advance width="1320"/>
  <unicode hex="002D"/>
  <outline>
    <contour>
      <point x="183" y="722" type="line"/>
      <point x="183" y="958" type="line"/>
      <point x="1137" y="958" type="line"/>
      <point x="1137" y="722" type="line"/>
    </contour>
  </outline>
</glyph>
<glyph name="four" format="1">
  <advance width="1308"/>
  <unicode hex="0034"/>
  <outline>
    <contour>
      <point x="124" y="0" type="line"/>
      <point x="75" y="130" type="line"/>
      <point x="257" y="429"/>
      <point x="550" y="919"/>
      <point x="708" y="1274" type="curve"/>
      <point x="807" y="1274" type="line"/>
      <point x="1037" y="1120" type="line"/>
      <point x="426" y="250" type="line"/>
      <point x="355" y="164" type="line"/>
      <point x="802" y="211" type="line"/>
      <point x="818" y="589" type="line"/>
      <point x="1094" y="622" type="line"/>
      <point x="1094" y="241" type="line"/>
      <point x="1274" y="260" type="line"/>
      <point x="1274" y="0" type="line"/>
      <point x="1094" y="0" type="line"/>
      <point x="1094" y="-376" type="line"/>
      <point x="779" y="-376" type="line"/>
      <point x="794" y="0" type="line"/>
    </contour>
  </outline>
</glyph>
<glyph name="five" format="1">
  <advance width="1139"/>
  <unicode hex="0035"/>
  <outline>
    <contour>
      <point x="108" y="-182" type="line"/>
      <point x="401" y="-206"/>
      <point x="689" y="-96"/>
      <point x="689" y="227" type="curve" smooth="yes"/>
      <point x="689" y="417"/>
      <point x="589" y="578"/>
      <point x="260" y="501" type="curve"/>
      <point x="129" y="541" type="line"/>
      <point x="191" y="1237" type="line"/>
      <point x="857" y="1237" type="line"/>
      <point x="885" y="1274" type="line"/>
      <point x="1014" y="1274" type="line"/>
      <point x="930" y="973" type="line"/>
      <point x="421" y="973" type="line"/>
      <point x="357" y="673" type="line"/>
      <point x="813" y="807"/>
      <point x="1052" y="532"/>
      <point x="1052" y="268" type="curve" smooth="yes"/>
      <point x="1052" y="-146"/>
      <point x="625" y="-351"/>
      <point x="231" y="-351" type="curve" smooth="yes"/>
      <point x="197" y="-351"/>
      <point x="144" y="-348"/>
      <point x="108" y="-337" type="curve"/>
    </contour>
  </outline>
</glyph>
<glyph name="six" format="1">
  <advance width="1348"/>
  <unicode hex="0036"/>
  <outline>
    <contour>
      <point x="114" y="550" type="curve" smooth="yes"/>
      <point x="114" y="1093"/>
      <point x="599" y="1475"/>
      <point x="1029" y="1551" type="curve"/>
      <point x="1107" y="1403" type="line"/>
      <point x="811" y="1327"/>
      <point x="463" y="1009"/>
      <point x="463" y="622" type="curve" smooth="yes"/>
      <point x="463" y="441"/>
      <point x="473" y="122"/>
      <point x="698" y="122" type="curve" smooth="yes"/>
      <point x="789" y="122"/>
      <point x="912" y="197"/>
      <point x="912" y="474" type="curve" smooth="yes"/>
      <point x="912" y="599"/>
      <point x="832" y="755"/>
      <point x="691" y="755" type="curve" smooth="yes"/>
      <point x="641" y="755"/>
      <point x="599" y="745"/>
      <point x="565" y="727" type="curve"/>
      <point x="518" y="822" type="line"/>
      <point x="551" y="876"/>
      <point x="665" y="968"/>
      <point x="836" y="968" type="curve" smooth="yes"/>
      <point x="1107" y="968"/>
      <point x="1248" y="778"/>
      <point x="1248" y="531" type="curve" smooth="yes"/>
      <point x="1248" y="216"/>
      <point x="1027" y="-24"/>
      <point x="662" y="-24" type="curve" smooth="yes"/>
      <point x="320" y="-24"/>
      <point x="114" y="239"/>
    </contour>
  </outline>
</glyph>
<glyph name="seven" format="1">
  <advance width="1232"/>
  <unicode hex="0037"/>
  <outline>
    <contour>
      <point x="263" y="-215" type="line"/>
      <point x="477" y="176"/>
      <point x="682" y="595"/>
      <point x="899" y="1085" type="curve"/>
      <point x="403" y="1059" type="line"/>
      <point x="328" y="829" type="line"/>
      <point x="118" y="833" type="line"/>
      <point x="155" y="1253" type="line"/>
      <point x="1119" y="1253" type="line"/>
      <point x="1177" y="1190" type="line"/>
      <point x="606" y="-336" type="line"/>
    </contour>
  </outline>
</glyph>
<glyph name="eight" format="1">
  <advance width="1297"/>
  <unicode hex="0038"/>
  <outline>
    <contour>
      <point x="99" y="373" type="curve" smooth="yes"/>
      <point x="99" y="518"/>
      <point x="198" y="705"/>
      <point x="427" y="782" type="curve"/>
      <point x="286" y="885"/>
      <point x="168" y="1005"/>
      <point x="168" y="1174" type="curve" smooth="yes"/>
      <point x="168" y="1440"/>
      <point x="420" y="1567"/>
      <point x="660" y="1567" type="curve" smooth="yes"/>
      <point x="910" y="1567"/>
      <point x="1137" y="1453"/>
      <point x="1137" y="1203" type="curve" smooth="yes"/>
      <point x="1137" y="1063"/>
      <point x="998" y="897"/>
      <point x="873" y="846" type="curve"/>
      <point x="1046" y="728"/>
      <point x="1209" y="596"/>
      <point x="1209" y="416" type="curve" smooth="yes"/>
      <point x="1209" y="102"/>
      <point x="928" y="-24"/>
      <point x="666" y="-24" type="curve" smooth="yes"/>
      <point x="384" y="-24"/>
      <point x="99" y="82"/>
    </contour>
    <contour>
      <point x="743" y="932" type="curve"/>
      <point x="820" y="988"/>
      <point x="856" y="1076"/>
      <point x="855" y="1182" type="curve" smooth="yes"/>
      <point x="854" y="1328"/>
      <point x="755" y="1425"/>
      <point x="643" y="1425" type="curve" smooth="yes"/>
      <point x="565" y="1425"/>
      <point x="462" y="1372"/>
      <point x="462" y="1253" type="curve" smooth="yes"/>
      <point x="462" y="1132"/>
      <point x="591" y="1034"/>
    </contour>
    <contour>
      <point x="409" y="456" type="curve" smooth="yes"/>
      <point x="409" y="258"/>
      <point x="532" y="122"/>
      <point x="682" y="122" type="curve" smooth="yes"/>
      <point x="777" y="122"/>
      <point x="886" y="174"/>
      <point x="886" y="340" type="curve" smooth="yes"/>
      <point x="886" y="481"/>
      <point x="723" y="583"/>
      <point x="553" y="695" type="curve"/>
      <point x="474" y="633"/>
      <point x="409" y="556"/>
    </contour>
  </outline>
</glyph>
<glyph name="nine" format="1">
  <advance width="1331"/>
  <unicode hex="0039"/>
  <outline>
    <contour>
      <point x="281" y="-261" type="line"/>
      <point x="577" y="-185"/>
      <point x="875" y="221"/>
      <point x="875" y="608" type="curve" smooth="yes"/>
      <point x="875" y="789"/>
      <point x="865" y="1108"/>
      <point x="640" y="1108" type="curve" smooth="yes"/>
      <point x="549" y="1108"/>
      <point x="426" y="1033"/>
      <point x="426" y="756" type="curve" smooth="yes"/>
      <point x="426" y="631"/>
      <point x="506" y="475"/>
      <point x="647" y="475" type="curve" smooth="yes"/>
      <point x="697" y="475"/>
      <point x="739" y="485"/>
      <point x="773" y="503" type="curve"/>
      <point x="820" y="408" type="line"/>
      <point x="785" y="346"/>
      <point x="694" y="262"/>
      <point x="502" y="262" type="curve" smooth="yes"/>
      <point x="231" y="262"/>
      <point x="90" y="452"/>
      <point x="90" y="699" type="curve" smooth="yes"/>
      <point x="90" y="1014"/>
      <point x="311" y="1254"/>
      <point x="676" y="1254" type="curve" smooth="yes"/>
      <point x="1018" y="1254"/>
      <point x="1224" y="991"/>
      <point x="1224" y="680" type="curve" smooth="yes"/>
      <point x="1224" y="137"/>
      <point x="789" y="-333"/>
      <point x="359" y="-409" type="curve"/>
    </contour>
  </outline>
</glyph>
<glyph name="colon" format="1">
  <advance width="803"/>
  <unicode hex="003A"/>
  <outline>
    <contour>
      <point x="382" y="702" type="curve" smooth="yes"/>
      <point x="281" y="702"/>
      <point x="179" y="769"/>
      <point x="179" y="888" type="curve" smooth="yes"/>
      <point x="179" y="1017"/>
      <point x="308" y="1115"/>
      <point x="417" y="1115" type="curve" smooth="yes"/>
      <point x="558" y="1115"/>
      <point x="624" y="1028"/>
      <point x="624" y="921" type="curve" smooth="yes"/>
      <point x="624" y="785"/>
      <point x="500" y="702"/>
    </contour>
    <contour>
      <point x="179" y="150" type="curve" smooth="yes"/>
      <point x="179" y="279"/>
      <point x="308" y="377"/>
      <point x="417" y="377" type="curve" smooth="yes"/>
      <point x="558" y="377"/>
      <point x="624" y="290"/>
      <point x="624" y="183" type="curve" smooth="yes"/>
      <point x="624" y="47"/>
      <point x="500" y="-36"/>
      <point x="382" y="-36" type="curve" smooth="yes"/>
      <point x="281" y="-36"/>
      <point x="179" y="31"/>
    </contour>
  </outline>
</glyph>
<glyph name="semicolon" format="1">
  <advance width="828"/>
  <unicode hex="003B"/>
  <outline>
    <contour>
      <point x="383" y="702" type="curve" smooth="yes"/>
      <point x="282" y="702"/>
      <point x="180" y="769"/>
      <point x="180" y="888" type="curve" smooth="yes"/>
      <point x="180" y="1017"/>
      <point x="309" y="1115"/>
      <point x="418" y="1115" type="curve" smooth="yes"/>
      <point x="559" y="1115"/>
      <point x="625" y="1028"/>
      <point x="625" y="921" type="curve" smooth="yes"/>
      <point x="625" y="785"/>
      <point x="501" y="702"/>
    </contour>
    <contour>
      <point x="212" y="-15" type="curve"/>
      <point x="212" y="66" type="line"/>
      <point x="416" y="324" type="line"/>
      <point x="602" y="257"/>
      <point x="681" y="80"/>
      <point x="678" y="-78" type="curve" smooth="yes"/>
      <point x="672" y="-370"/>
      <point x="465" y="-536"/>
      <point x="288" y="-596" type="curve"/>
      <point x="211" y="-527" type="line"/>
      <point x="211" y="-472" type="line"/>
      <point x="281" y="-441"/>
      <point x="383" y="-361"/>
      <point x="383" y="-203" type="curve" smooth="yes"/>
      <point x="383" y="-111"/>
      <point x="304" y="-23"/>
    </contour>
  </outline>
</glyph>
<glyph name="equal" format="1">
  <advance width="1320"/>
  <unicode hex="003D"/>
  <outline>
    <contour>
      <point x="183" y="979" type="line"/>
      <point x="183" y="1210" type="line"/>
      <point x="1137" y="1210" type="line"/>
      <point x="1137" y="979" type="line"/>
    </contour>
    <contour>
      <point x="183" y="430" type="line"/>
      <point x="183" y="662" type="line"/>
      <point x="1137" y="662" type="line"/>
      <point x="1137" y="430" type="line"/>
    </contour>
  </outline>
</glyph>
<glyph name="greater" format="1">
  <advance width="1335"/>
  <unicode hex="003E"/>
  <outline>
    <contour>
      <point x="183" y="200" type="line"/>
      <point x="183" y="493" type="line"/>
      <point x="778" y="772" type="line"/>
      <point x="183" y="1019" type="line"/>
      <point x="183" y="1323" type="line"/>
      <point x="1152" y="837" type="line"/>
      <point x="1152" y="703" type="line"/>
    </contour>
  </outline>
</glyph>
<glyph name="D" format="1">
  <advance width="1616"/>
  <unicode hex="0044"/>
  <outline>
    <contour>
      <point x="90" y="0" type="curve"/>
      <point x="90" y="140" type="line"/>
      <point x="235" y="180" type="line"/>
      <point x="235" y="1368" type="line"/>
      <point x="94" y="1389" type="line"/>
      <point x="94" y="1553" type="line"/>
      <point x="422" y="1553" type="line" smooth="yes"/>
      <point x="509" y="1553"/>
      <point x="644" y="1567"/>
      <point x="773" y="1567" type="curve" smooth="yes"/>
      <point x="1321" y="1567"/>
      <point x="1551" y="1259"/>
      <point x="1551" y="822" type="curve" smooth="yes"/>
      <point x="1551" y="298"/>
      <point x="1221" y="-10"/>
      <point x="746" y="-10" type="curve" smooth="yes"/>
      <point x="646" y="-10"/>
      <point x="505" y="1"/>
      <point x="428" y="1" type="curve" smooth="yes"/>
      <point x="316" y="1"/>
      <point x="202" y="0"/>
    </contour>
    <contour>
      <point x="593" y="179" type="line"/>
      <point x="642" y="148"/>
      <point x="724" y="139"/>
      <point x="830" y="149" type="curve" smooth="yes"/>
      <point x="1029" y="167"/>
      <point x="1176" y="406"/>
      <point x="1176" y="748" type="curve" smooth="yes"/>
      <point x="1176" y="1187"/>
      <point x="1035" y="1402"/>
      <point x="749" y="1407" type="curve" smooth="yes"/>
      <point x="690" y="1408"/>
      <point x="622" y="1396"/>
      <point x="593" y="1378" type="curve"/>
    </contour>
  </outline>
</glyph>
<glyph name="H" format="1">
  <advance width="1780"/>
  <unicode hex="0048"/>
  <outline>
    <contour>
      <point x="65" y="0" type="line"/>
      <point x="65" y="140" type="line"/>
      <point x="235" y="182" type="line"/>
      <point x="235" y="1366" type="line"/>
      <point x="59" y="1389" type="line"/>
      <point x="59" y="1553" type="line"/>
      <point x="766" y="1553" type="line"/>
      <point x="766" y="1389" type="line"/>
      <point x="593" y="1367" type="line"/>
      <point x="593" y="882" type="line"/>
      <point x="1188" y="882" type="line"/>
      <point x="1188" y="1370" type="line"/>
      <point x="1019" y="1389" type="line"/>
      <point x="1019" y="1553" type="line"/>
      <point x="1720" y="1553" type="line"/>
      <point x="1720" y="1389" type="line"/>
      <point x="1545" y="1368" type="line"/>
      <point x="1545" y="181" type="line"/>
      <point x="1730" y="138" type="line"/>
      <point x="1730" y="0" type="line"/>
      <point x="1005" y="0" type="line"/>
      <point x="1005" y="138" type="line"/>
      <point x="1188" y="180" type="line"/>
      <point x="1188" y="691" type="line"/>
      <point x="593" y="691" type="line"/>
      <point x="593" y="182" type="line"/>
      <point x="777" y="140" type="line"/>
      <point x="777" y="0" type="line"/>
    </contour>
  </outline>
</glyph>
<glyph name="I" format="1">
  <advance width="848"/>
  <unicode hex="0049"/>
  <outline>
    <contour>
      <point x="55" y="0" type="line"/>
      <point x="55" y="140" type="line"/>
      <point x="243" y="181" type="line"/>
      <point x="243" y="1365" type="line"/>
      <point x="55" y="1389" type="line"/>
      <point x="55" y="1553" type="line"/>
      <point x="782" y="1553" type="line"/>
      <point x="782" y="1389" type="line"/>
      <point x="604" y="1364" type="line"/>
      <point x="604" y="183" type="line"/>
      <point x="793" y="140" type="line"/>
      <point x="793" y="0" type="line"/>
    </contour>
  </outline>
</glyph>
<glyph name="J" format="1">
  <advance width="787"/>
  <unicode hex="004A"/>
  <outline>
    <contour>
      <point x="182" y="-47" type="curve"/>
      <point x="224" y="70"/>
      <point x="232" y="202"/>
      <point x="232" y="406" type="curve" smooth="yes"/>
      <point x="232" y="1367" type="line"/>
      <point x="84" y="1389" type="line"/>
      <point x="84" y="1553" type="line"/>
      <point x="736" y="1553" type="line"/>
      <point x="736" y="1389" type="line"/>
      <point x="593" y="1366" type="line"/>
      <point x="593" y="534" type="line" smooth="yes"/>
      <point x="593" y="297"/>
      <point x="574" y="54"/>
      <point x="533" y="-41" type="curve" smooth="yes"/>
      <point x="429" y="-280"/>
      <point x="138" y="-391"/>
      <point x="-42" y="-396" type="curve"/>
      <point x="-112" y="-295" type="line"/>
      <point x="19" y="-244"/>
      <point x="127" y="-175"/>
    </contour>
  </outline>
</glyph>
<glyph name="K" format="1">
  <advance width="1535"/>
  <unicode hex="004B"/>
  <outline>
    <contour>
      <point x="46" y="0" type="line"/>
      <point x="46" y="140" type="line"/>
      <point x="235" y="183" type="line"/>
      <point x="235" y="1364" type="line"/>
      <point x="43" y="1389" type="line"/>
      <point x="43" y="1553" type="line"/>
      <point x="767" y="1553" type="line"/>
      <point x="767" y="1389" type="line"/>
      <point x="589" y="1364" type="line"/>
      <point x="589" y="797" type="line"/>
      <point x="1049" y="1366" type="line"/>
      <point x="890" y="1389" type="line"/>
      <point x="887" y="1553" type="line"/>
      <point x="1506" y="1553" type="line"/>
      <point x="1506" y="1389" type="line"/>
      <point x="1319" y="1363" type="line"/>
      <point x="888" y="889" type="line"/>
      <point x="1064" y="735"/>
      <point x="1300" y="238"/>
      <point x="1415" y="177" type="curve"/>
      <point x="1545" y="140" type="line"/>
      <point x="1545" y="0" type="line"/>
      <point x="1122" y="0" type="line" smooth="yes"/>
      <point x="1004" y="0"/>
      <point x="855" y="562"/>
      <point x="703" y="684" type="curve"/>
      <point x="589" y="558" type="line"/>
      <point x="589" y="182" type="line"/>
      <point x="790" y="140" type="line"/>
      <point x="790" y="0" type="line"/>
    </contour>
  </outline>
</glyph>
<glyph name="L" format="1">
  <advance width="1293"/>
  <unicode hex="004C"/>
  <outline>
    <contour>
      <point x="93" y="0" type="line"/>
      <point x="93" y="140" type="line"/>
      <point x="235" y="178" type="line"/>
      <point x="235" y="1347" type="line"/>
      <point x="98" y="1368" type="line"/>
      <point x="98" y="1553" type="line"/>
      <point x="776" y="1553" type="line"/>
      <point x="776" y="1368" type="line"/>
      <point x="594" y="1346" type="line"/>
      <point x="594" y="163" type="line"/>
      <point x="954" y="202" type="line"/>
      <point x="1121" y="439" type="line"/>
      <point x="1273" y="383" type="line"/>
      <point x="1204" y="0" type="line"/>
    </contour>
  </outline>
</glyph>
<glyph name="M" format="1">
  <advance width="2060"/>
  <unicode hex="004D"/>
  <outline>
    <contour>
      <point x="62" y="0" type="line"/>
      <point x="62" y="140" type="line"/>
      <point x="234" y="182" type="line"/>
      <point x="304" y="1343" type="line"/>
      <point x="119" y="1366" type="line"/>
      <point x="119" y="1553" type="line"/>
      <point x="798" y="1553" type="line"/>
      <point x="1039" y="757" type="line"/>
      <point x="1072" y="555" type="line"/>
      <point x="1114" y="757" type="line"/>
      <point x="1340" y="1553" type="line"/>
      <point x="1966" y="1553" type="line"/>
      <point x="1966" y="1366" type="line"/>
      <point x="1779" y="1344" type="line"/>
      <point x="1883" y="181" type="line"/>
      <point x="2040" y="138" type="line"/>
      <point x="2040" y="0" type="line"/>
      <point x="1377" y="0" type="line"/>
      <point x="1377" y="138" type="line"/>
      <point x="1542" y="183" type="line"/>
      <point x="1486" y="949" type="line"/>
      <point x="1482" y="1355" type="line"/>
      <point x="1448" y="1217" type="line"/>
      <point x="1093" y="-18" type="line"/>
      <point x="963" y="-18" type="line"/>
      <point x="633" y="972" type="line"/>
      <point x="513" y="1347" type="line"/>
      <point x="509" y="1069" type="line"/>
      <point x="479" y="185" type="line"/>
      <point x="663" y="140" type="line"/>
      <point x="663" y="0" type="line"/>
    </contour>
  </outline>
</glyph>
<glyph name="P" format="1">
  <advance width="1368"/>
  <unicode hex="0050"/>
  <outline>
    <contour>
      <point x="60" y="0" type="line"/>
      <point x="60" y="140" type="line"/>
      <point x="235" y="183" type="line"/>
      <point x="235" y="1346" type="line"/>
      <point x="63" y="1380" type="line"/>
      <point x="63" y="1553" type="line"/>
      <point x="421" y="1553" type="line" smooth="yes"/>
      <point x="521" y="1553"/>
      <point x="622" y="1567"/>
      <point x="764" y="1567" type="curve" smooth="yes"/>
      <point x="1086" y="1567"/>
      <point x="1365" y="1483"/>
      <point x="1365" y="1113" type="curve" smooth="yes"/>
      <point x="1365" y="779"/>
      <point x="1103" y="602"/>
      <point x="763" y="602" type="curve" smooth="yes"/>
      <point x="685" y="602"/>
      <point x="628" y="602"/>
      <point x="587" y="604" type="curve"/>
      <point x="587" y="182" type="line"/>
      <point x="832" y="140" type="line"/>
      <point x="832" y="0" type="line"/>
    </contour>
    <contour>
      <point x="587" y="783" type="line"/>
      <point x="628" y="774"/>
      <point x="708" y="772"/>
      <point x="756" y="772" type="curve" smooth="yes"/>
      <point x="896" y="772"/>
      <point x="1015" y="861"/>
      <point x="1015" y="1130" type="curve" smooth="yes"/>
      <point x="1015" y="1320"/>
      <point x="887" y="1401"/>
      <point x="720" y="1404" type="curve" smooth="yes"/>
      <point x="687" y="1404"/>
      <point x="606" y="1399"/>
      <point x="587" y="1391" type="curve"/>
    </contour>
  </outline>
</glyph>
<glyph name="S" format="1">
  <advance width="1316"/>
  <unicode hex="0053"/>
  <outline>
    <contour>
      <point x="137" y="64" type="curve"/>
      <point x="137" y="469" type="line"/>
      <point x="287" y="469" type="line"/>
      <point x="380" y="228" type="line"/>
      <point x="451" y="134"/>
      <point x="558" y="126"/>
      <point x="662" y="126" type="curve" smooth="yes"/>
      <point x="766" y="126"/>
      <point x="899" y="175"/>
      <point x="899" y="348" type="curve" smooth="yes"/>
      <point x="899" y="484"/>
      <point x="720" y="567"/>
      <point x="535" y="667" type="curve" smooth="yes"/>
      <point x="336" y="775"/>
      <point x="130" y="903"/>
      <point x="131" y="1141" type="curve" smooth="yes"/>
      <point x="132" y="1416"/>
      <point x="396" y="1567"/>
      <point x="668" y="1567" type="curve" smooth="yes"/>
      <point x="887" y="1567"/>
      <point x="1110" y="1521"/>
      <point x="1152" y="1495" type="curve"/>
      <point x="1152" y="1164" type="line"/>
      <point x="988" y="1164" type="line"/>
      <point x="894" y="1374" type="line"/>
      <point x="882" y="1389"/>
      <point x="786" y="1421"/>
      <point x="703" y="1421" type="curve" smooth="yes"/>
      <point x="596" y="1421"/>
      <point x="471" y="1384"/>
      <point x="469" y="1257" type="curve"/>
      <point x="469" y="1108"/>
      <point x="603" y="1017"/>
      <point x="761" y="930" type="curve" smooth="yes"/>
      <point x="985" y="806"/>
      <point x="1256" y="689"/>
      <point x="1255" y="421" type="curve" smooth="yes"/>
      <point x="1254" y="166"/>
      <point x="1032" y="-28"/>
      <point x="660" y="-28" type="curve" smooth="yes"/>
      <point x="474" y="-28"/>
      <point x="239" y="10"/>
    </contour>
  </outline>
</glyph>
<glyph name="T" format="1">
  <advance width="1456"/>
  <unicode hex="0054"/>
  <outline>
    <contour>
      <point x="341" y="0" type="line"/>
      <point x="341" y="140" type="line"/>
      <point x="571" y="179" type="line"/>
      <point x="571" y="1385" type="line"/>
      <point x="297" y="1358" type="line"/>
      <point x="228" y="1143" type="line"/>
      <point x="47" y="1134" type="line"/>
      <point x="71" y="1553" type="line"/>
      <point x="1410" y="1553" type="line"/>
      <point x="1408" y="1146" type="line"/>
      <point x="1267" y="1129" type="line"/>
      <point x="1190" y="1358" type="line"/>
      <point x="925" y="1385" type="line"/>
      <point x="925" y="180" type="line"/>
      <point x="1150" y="140" type="line"/>
      <point x="1150" y="0" type="line"/>
    </contour>
  </outline>
</glyph>
<glyph name="U" format="1">
  <advance width="1611"/>
  <unicode hex="0055"/>
  <outline>
    <contour>
      <point x="194" y="625" type="curve" smooth="yes"/>
      <point x="198" y="1365" type="line"/>
      <point x="40" y="1389" type="line"/>
      <point x="40" y="1553" type="line"/>
      <point x="722" y="1553" type="line"/>
      <point x="722" y="1389" type="line"/>
      <point x="553" y="1366" type="line"/>
      <point x="553" y="610" type="line" smooth="yes"/>
      <point x="553" y="206"/>
      <point x="735" y="150"/>
      <point x="897" y="150" type="curve" smooth="yes"/>
      <point x="1080" y="150"/>
      <point x="1218" y="263"/>
      <point x="1216" y="666" type="curve" smooth="yes"/>
      <point x="1213" y="1363" type="line"/>
      <point x="1045" y="1389" type="line"/>
      <point x="1045" y="1553" type="line"/>
      <point x="1584" y="1553" type="line"/>
      <point x="1584" y="1389" type="line"/>
      <point x="1440" y="1363" type="line"/>
      <point x="1440" y="667" type="line" smooth="yes"/>
      <point x="1440" y="120"/>
      <point x="1159" y="-28"/>
      <point x="853" y="-28" type="curve" smooth="yes"/>
      <point x="405" y="-28"/>
      <point x="192" y="184"/>
    </contour>
  </outline>
</glyph>
<glyph name="V" format="1">
  <advance width="1493"/>
  <unicode hex="0056"/>
  <outline>
    <contour>
      <point x="633" y="-15" type="line"/>
      <point x="131" y="1370" type="line"/>
      <point x="13" y="1389" type="line"/>
      <point x="13" y="1553" type="line"/>
      <point x="680" y="1553" type="line"/>
      <point x="680" y="1392" type="line"/>
      <point x="517" y="1367" type="line"/>
      <point x="733" y="613" type="line"/>
      <point x="797" y="344" type="line"/>
      <point x="858" y="607" type="line"/>
      <point x="1062" y="1366" type="line"/>
      <point x="908" y="1389" type="line"/>
      <point x="908" y="1552" type="line"/>
      <point x="1480" y="1552" type="line"/>
      <point x="1480" y="1389" type="line"/>
      <point x="1359" y="1370" type="line"/>
      <point x="907" y="-15" type="line"/>
    </contour>
  </outline>
</glyph>
<glyph name="W" format="1">
  <advance width="2281"/>
  <unicode hex="0057"/>
  <outline>
    <contour>
      <point x="587" y="-15" type="line"/>
      <point x="139" y="1369" type="line"/>
      <point x="15" y="1388" type="line"/>
      <point x="15" y="1553" type="line"/>
      <point x="640" y="1553" type="line"/>
      <point x="640" y="1390" type="line"/>
      <point x="521" y="1369" type="line"/>
      <point x="755" y="444" type="line"/>
      <point x="766" y="387"/>
      <point x="777" y="332"/>
      <point x="789" y="276" type="curve"/>
      <point x="822" y="444" type="line"/>
      <point x="1012" y="1210" type="line"/>
      <point x="972" y="1369" type="line"/>
      <point x="842" y="1388" type="line"/>
      <point x="842" y="1553" type="line"/>
      <point x="1488" y="1553" type="line"/>
      <point x="1488" y="1390" type="line"/>
      <point x="1326" y="1367" type="line"/>
      <point x="1530" y="444" type="line"/>
      <point x="1566" y="272" type="line"/>
      <point x="1608" y="444" type="line"/>
      <point x="1831" y="1368" type="line"/>
      <point x="1681" y="1388" type="line"/>
      <point x="1681" y="1553" type="line"/>
      <point x="2266" y="1553" type="line"/>
      <point x="2266" y="1388" type="line"/>
      <point x="2115" y="1369" type="line"/>
      <point x="1699" y="-16" type="line"/>
      <point x="1358" y="-16" type="line"/>
      <point x="1129" y="791" type="line"/>
      <point x="907" y="-15" type="line"/>
    </contour>
  </outline>
</glyph>
<glyph name="X" format="1">
  <advance width="1553"/>
  <unicode hex="0058"/>
  <outline>
    <contour>
      <point x="24" y="0" type="line"/>
      <point x="24" y="138" type="line"/>
      <point x="200" y="182" type="line"/>
      <point x="611" y="748" type="line"/>
      <point x="185" y="1365" type="line"/>
      <point x="24" y="1389" type="line"/>
      <point x="24" y="1553" type="line"/>
      <point x="731" y="1553" type="line"/>
      <point x="731" y="1392" type="line"/>
      <point x="585" y="1369" type="line"/>
      <point x="799" y="975" type="line"/>
      <point x="1042" y="1369" type="line"/>
      <point x="906" y="1389" type="line"/>
      <point x="906" y="1553" type="line"/>
      <point x="1529" y="1553" type="line"/>
      <point x="1529" y="1389" type="line"/>
      <point x="1337" y="1367" type="line"/>
      <point x="916" y="819" type="line"/>
      <point x="1365" y="184" type="line"/>
      <point x="1530" y="138" type="line"/>
      <point x="1530" y="0" type="line"/>
      <point x="827" y="0" type="line"/>
      <point x="827" y="137" type="line"/>
      <point x="970" y="177" type="line"/>
      <point x="739" y="576" type="line"/>
      <point x="505" y="183" type="line"/>
      <point x="693" y="138" type="line"/>
      <point x="693" y="0" type="line"/>
    </contour>
  </outline>
</glyph>
<glyph name="Y" format="1">
  <advance width="1480"/>
  <unicode hex="0059"/>
  <outline>
    <contour>
      <point x="349" y="0" type="line"/>
      <point x="349" y="140" type="line"/>
      <point x="589" y="185" type="line"/>
      <point x="589" y="511" type="line"/>
      <point x="123" y="1370" type="line"/>
      <point x="13" y="1389" type="line"/>
      <point x="13" y="1553" type="line"/>
      <point x="643" y="1553" type="line"/>
      <point x="643" y="1392" type="line"/>
      <point x="537" y="1372" type="line"/>
      <point x="789" y="841" type="line"/>
      <point x="818" y="747" type="line"/>
      <point x="851" y="850" type="line"/>
      <point x="1064" y="1364" type="line"/>
      <point x="905" y="1389" type="line"/>
      <point x="905" y="1444"/>
      <point x="904" y="1498"/>
      <point x="904" y="1553" type="curve"/>
      <point x="1467" y="1553" type="line"/>
      <point x="1467" y="1389" type="line"/>
      <point x="1335" y="1352" type="line"/>
      <point x="945" y="543" type="line"/>
      <point x="945" y="188" type="line"/>
      <point x="1214" y="140" type="line"/>
      <point x="1214" y="0" type="line"/>
    </contour>
  </outline>
</glyph>
<glyph name="Z" format="1">
  <advance width="1388"/>
  <unicode hex="005A"/>
  <outline>
    <contour>
      <point x="93" y="0" type="line"/>
      <point x="52" y="139" type="line"/>
      <point x="791" y="1211" type="line"/>
      <point x="957" y="1393" type="line"/>
      <point x="383" y="1346" type="line"/>
      <point x="255" y="1101" type="line"/>
      <point x="102" y="1131" type="line"/>
      <point x="145" y="1553" type="line"/>
      <point x="1295" y="1553" type="line"/>
      <point x="1341" y="1400" type="line"/>
      <point x="614" y="330" type="line"/>
      <point x="469" y="164" type="line"/>
      <point x="1026" y="210" type="line"/>
      <point x="1225" y="477" type="line"/>
      <point x="1374" y="436" type="line"/>
      <point x="1264" y="0" type="line"/>
    </contour>
  </outline>
</glyph>
<glyph name="bracketleft" format="1">
  <advance width="1118"/>
  <unicode hex="005B"/>
  <outline>
    <contour>
      <point x="259" y="111" type="curve" smooth="yes"/>
      <point x="259" y="1512" type="line" smooth="yes"/>
      <point x="259" y="1750"/>
      <point x="369" y="1804"/>
      <point x="572" y="1804" type="curve" smooth="yes"/>
      <point x="665" y="1804"/>
      <point x="787" y="1763"/>
      <point x="882" y="1727" type="curve"/>
      <point x="882" y="1686"/>
      <point x="881" y="1644"/>
      <point x="881" y="1603" type="curve"/>
      <point x="573" y="1603" type="line"/>
      <point x="573" y="-29" type="line"/>
      <point x="881" y="-33" type="line"/>
      <point x="885" y="-158" type="line"/>
      <point x="819" y="-195"/>
      <point x="665" y="-230"/>
      <point x="573" y="-230" type="curve" smooth="yes"/>
      <point x="368" y="-230"/>
      <point x="259" y="-187"/>
    </contour>
  </outline>
</glyph>
<glyph name="underscore" format="1">
  <advance width="1421"/>
  <unicode hex="005F"/>
  <outline>
    <contour>
      <point x="-20" y="-193" type="line"/>
      <point x="1435" y="-193" type="line"/>
      <point x="1435" y="-427" type="line"/>
      <point x="-20" y="-427" type="line"/>
    </contour>
  </outline>
</glyph>
<glyph name="grave" format="1">
  <advance width="884"/>
  <unicode hex="0060"/>
  <outline>
    <contour>
      <point x="715" y="1337" type="line"/>
      <point x="554" y="1332"/>
      <point x="334" y="1511"/>
      <point x="233" y="1657" type="curve"/>
      <point x="488" y="1852" type="line"/>
      <point x="803" y="1426" type="line"/>
    </contour>
  </outline>
</glyph>
<glyph name="c" format="1">
  <advance width="1134"/>
  <unicode hex="0063"/>
  <outline>
    <contour>
      <point x="74" y="525" type="curve" smooth="yes"/>
      <point x="72" y="913"/>
      <point x="348" y="1139"/>
      <point x="695" y="1151" type="curve" smooth="yes"/>
      <point x="832" y="1155"/>
      <point x="1004" y="1133"/>
      <point x="1064" y="1099" type="curve"/>
      <point x="1064" y="782" type="line"/>
      <point x="881" y="782" type="line"/>
      <point x="802" y="970" type="line"/>
      <point x="765" y="992"/>
      <point x="713" y="995"/>
      <point x="670" y="995" type="curve" smooth="yes"/>
      <point x="534" y="995"/>
      <point x="449" y="858"/>
      <point x="441" y="624" type="curve" smooth="yes"/>
      <point x="430" y="301"/>
      <point x="589" y="169"/>
      <point x="767" y="169" type="curve" smooth="yes"/>
      <point x="888" y="169"/>
      <point x="999" y="203"/>
      <point x="1048" y="240" type="curve"/>
      <point x="1101" y="115" type="line"/>
      <point x="995" y="24"/>
      <point x="830" y="-28"/>
      <point x="629" y="-28" type="curve" smooth="yes"/>
      <point x="270" y="-28"/>
      <point x="76" y="206"/>
    </contour>
  </outline>
</glyph>
<glyph name="k" format="1">
  <advance width="1358"/>
  <unicode hex="006B"/>
  <outline>
    <contour>
      <point x="69" y="0" type="line"/>
      <point x="69" y="136" type="line"/>
      <point x="203" y="166" type="line"/>
      <point x="203" y="1352" type="line"/>
      <point x="42" y="1423" type="line"/>
      <point x="42" y="1565" type="line"/>
      <point x="496" y="1631" type="line"/>
      <point x="557" y="1603" type="line"/>
      <point x="557" y="711" type="line"/>
      <point x="544" y="570" type="line"/>
      <point x="870" y="919" type="line"/>
      <point x="687" y="940" type="line"/>
      <point x="687" y="1119" type="line"/>
      <point x="1325" y="1119" type="line"/>
      <point x="1325" y="940" type="line"/>
      <point x="1123" y="921" type="line"/>
      <point x="881" y="691" type="line"/>
      <point x="1222" y="158" type="line"/>
      <point x="1325" y="138" type="line"/>
      <point x="1325" y="0" type="line"/>
      <point x="734" y="0" type="line"/>
      <point x="734" y="138" type="line"/>
      <point x="817" y="165" type="line"/>
      <point x="649" y="480" type="line"/>
      <point x="547" y="363" type="line"/>
      <point x="556" y="280" type="line"/>
      <point x="556" y="162" type="line"/>
      <point x="673" y="136" type="line"/>
      <point x="673" y="0" type="line"/>
    </contour>
  </outline>
</glyph>
<glyph name="l" format="1">
  <advance width="735"/>
  <unicode hex="006C"/>
  <outline>
    <contour>
      <point x="70" y="0" type="line"/>
      <point x="70" y="136" type="line"/>
      <point x="188" y="161" type="line"/>
      <point x="188" y="1384" type="line"/>
      <point x="53" y="1441" type="line"/>
      <point x="53" y="1581" type="line"/>
      <point x="484" y="1630" type="line"/>
      <point x="542" y="1612" type="line"/>
      <point x="542" y="166" type="line"/>
      <point x="717" y="136" type="line"/>
      <point x="717" y="0" type="line"/>
    </contour>
  </outline>
</glyph>
<glyph name="p" format="1">
  <advance width="1349"/>
  <unicode hex="0070"/>
  <outline>
    <contour>
      <point x="61" y="-373" type="line"/>
      <point x="193" y="-344" type="line"/>
      <point x="193" y="819" type="line"/>
      <point x="57" y="915" type="line"/>
      <point x="57" y="1041" type="line"/>
      <point x="428" y="1151" type="line"/>
      <point x="498" y="1133" type="line"/>
      <point x="498" y="1004" type="line"/>
      <point x="512" y="1034"/>
      <point x="629" y="1151"/>
      <point x="822" y="1151" type="curve" smooth="yes"/>
      <point x="1061" y="1151"/>
      <point x="1276" y="1014"/>
      <point x="1276" y="595" type="curve" smooth="yes"/>
      <point x="1276" y="261"/>
      <point x="1007" y="-24"/>
      <point x="650" y="-24" type="curve" smooth="yes"/>
      <point x="603" y="-24"/>
      <point x="552" y="-15"/>
      <point x="532" y="-12" type="curve"/>
      <point x="545" y="-177" type="line"/>
      <point x="545" y="-344" type="line"/>
      <point x="758" y="-373" type="line"/>
      <point x="758" y="-511" type="line"/>
      <point x="61" y="-511" type="line"/>
    </contour>
    <contour>
      <point x="544" y="221" type="line"/>
      <point x="565" y="176"/>
      <point x="647" y="151"/>
      <point x="714" y="151" type="curve" smooth="yes"/>
      <point x="798" y="151"/>
      <point x="927" y="229"/>
      <point x="927" y="539" type="curve" smooth="yes"/>
      <point x="927" y="891"/>
      <point x="777" y="968"/>
      <point x="678" y="968" type="curve" smooth="yes"/>
      <point x="611" y="968"/>
      <point x="562" y="921"/>
      <point x="544" y="900" type="curve"/>
    </contour>
  </outline>
</glyph>
<glyph name="w" format="1">
  <advance width="1842"/>
  <unicode hex="0077"/>
  <outline>
    <contour>
      <point x="403" y="-5" type="line"/>
      <point x="119" y="913" type="line"/>
      <point x="3" y="940" type="line"/>
      <point x="3" y="1119" type="line"/>
      <point x="571" y="1119" type="line"/>
      <point x="571" y="940" type="line"/>
      <point x="473" y="913" type="line"/>
      <point x="587" y="449" type="line"/>
      <point x="621" y="291" type="line"/>
      <point x="644" y="419" type="line"/>
      <point x="834" y="1119" type="line"/>
      <point x="1125" y="1119" type="line"/>
      <point x="1304" y="419" type="line"/>
      <point x="1335" y="278" type="line"/>
      <point x="1364" y="419" type="line"/>
      <point x="1473" y="910" type="line"/>
      <point x="1340" y="940" type="line"/>
      <point x="1340" y="1119" type="line"/>
      <point x="1839" y="1119" type="line"/>
      <point x="1839" y="941" type="line"/>
      <point x="1699" y="907" type="line"/>
      <point x="1442" y="-5" type="line"/>
      <point x="1108" y="-5" type="line"/>
      <point x="954" y="507" type="line"/>
      <point x="900" y="722" type="line"/>
      <point x="862" y="507" type="line"/>
      <point x="724" y="-5" type="line"/>
    </contour>
  </outline>
</glyph>
<glyph name="z" format="1">
  <advance width="1151"/>
  <unicode hex="007A"/>
  <outline>
    <contour>
      <point x="98" y="0" type="line"/>
      <point x="52" y="100" type="line"/>
      <point x="167" y="284" type="line"/>
      <point x="604" y="878" type="line"/>
      <point x="689" y="968" type="line"/>
      <point x="344" y="948" type="line"/>
      <point x="278" y="746" type="line"/>
      <point x="96" y="746" type="line"/>
      <point x="96" y="1119" type="line"/>
      <point x="1053" y="1119" type="line"/>
      <point x="1104" y="995" type="line"/>
      <point x="628" y="303" type="line"/>
      <point x="505" y="151" type="line"/>
      <point x="868" y="186" type="line"/>
      <point x="928" y="358" type="line"/>
      <point x="1113" y="358" type="line"/>
      <point x="1097" y="0" type="line"/>
    </contour>
  </outline>
</glyph>
<glyph name="asciitilde" format="1">
  <advance width="1317"/>
  <unicode hex="007E"/>
  <outline>
    <contour>
      <point x="244" y="726" type="curve"/>
      <point x="146" y="852" type="line"/>
      <point x="160" y="928"/>
      <point x="325" y="1097"/>
      <point x="491" y="1097" type="curve" smooth="yes"/>
      <point x="665" y="1097"/>
      <point x="711" y="957"/>
      <point x="854" y="957" type="curve" smooth="yes"/>
      <point x="948" y="957"/>
      <point x="1033" y="1022"/>
      <point x="1072" y="1057" type="curve"/>
      <point x="1171" y="931" type="line"/>
      <point x="1159" y="846"/>
      <point x="1002" y="684"/>
      <point x="829" y="684" type="curve" smooth="yes"/>
      <point x="656" y="684"/>
      <point x="619" y="826"/>
      <point x="460" y="826" type="curve" smooth="yes"/>
      <point x="366" y="826"/>
      <point x="285" y="762"/>
    </contour>
  </outline>
</glyph>
<glyph name="cent" format="1">
  <advance width="1214"/>
  <unicode hex="00A2"/>
  <outline>
    <contour>
      <point x="513" y="-15" type="line"/>
      <point x="241" y="36"/>
      <point x="95" y="249"/>
      <point x="94" y="525" type="curve" smooth="yes"/>
      <point x="92" y="883"/>
      <point x="327" y="1103"/>
      <point x="636" y="1144" type="curve"/>
      <point x="649" y="1362" type="line"/>
      <point x="842" y="1362" type="line"/>
      <point x="830" y="1149" type="line"/>
      <point x="936" y="1142"/>
      <point x="1040" y="1124"/>
      <point x="1084" y="1099" type="curve"/>
      <point x="1084" y="782" type="line"/>
      <point x="901" y="782" type="line"/>
      <point x="822" y="970" type="line"/>
      <point x="785" y="992"/>
      <point x="733" y="995"/>
      <point x="690" y="995" type="curve" smooth="yes"/>
      <point x="554" y="995"/>
      <point x="469" y="858"/>
      <point x="461" y="624" type="curve" smooth="yes"/>
      <point x="450" y="301"/>
      <point x="609" y="169"/>
      <point x="787" y="169" type="curve" smooth="yes"/>
      <point x="908" y="169"/>
      <point x="1019" y="203"/>
      <point x="1068" y="240" type="curve"/>
      <point x="1121" y="115" type="line"/>
      <point x="1025" y="33"/>
      <point x="881" y="-17"/>
      <point x="706" y="-26" type="curve"/>
      <point x="696" y="-217" type="line"/>
      <point x="501" y="-217" type="line"/>
    </contour>
  </outline>
</glyph>
<glyph name="sterling" format="1">
  <advance width="1548"/>
  <unicode hex="00A3"/>
  <outline>
    <contour>
      <point x="3" y="71" type="curve" smooth="yes"/>
      <point x="3" y="149"/>
      <point x="107" y="238"/>
      <point x="326" y="238" type="curve"/>
      <point x="347" y="290"/>
      <point x="354" y="335"/>
      <point x="354" y="450" type="curve" smooth="yes"/>
      <point x="354" y="691" type="line"/>
      <point x="196" y="691" type="line"/>
      <point x="196" y="890" type="line"/>
      <point x="354" y="890" type="line"/>
      <point x="354" y="939" type="line" smooth="yes"/>
      <point x="354" y="1250"/>
      <point x="559" y="1568"/>
      <point x="929" y="1568" type="curve" smooth="yes"/>
      <point x="1042" y="1568"/>
      <point x="1162" y="1538"/>
      <point x="1254" y="1461" type="curve"/>
      <point x="1097" y="1177" type="line"/>
      <point x="1079" y="1228"/>
      <point x="968" y="1403"/>
      <point x="822" y="1403" type="curve" smooth="yes"/>
      <point x="731" y="1403"/>
      <point x="710" y="1309"/>
      <point x="710" y="992" type="curve" smooth="yes"/>
      <point x="710" y="890" type="line"/>
      <point x="961" y="890" type="line"/>
      <point x="961" y="691" type="line"/>
      <point x="710" y="691" type="line"/>
      <point x="710" y="635" type="line" smooth="yes"/>
      <point x="710" y="432"/>
      <point x="681" y="307"/>
      <point x="587" y="205" type="curve"/>
      <point x="690" y="194"/>
      <point x="732" y="157"/>
      <point x="879" y="152" type="curve" smooth="yes"/>
      <point x="1013" y="147"/>
      <point x="1106" y="230"/>
      <point x="1106" y="299" type="curve" smooth="yes"/>
      <point x="1106" y="371"/>
      <point x="1036" y="418"/>
      <point x="1010" y="433" type="curve"/>
      <point x="1146" y="700" type="line"/>
      <point x="1286" y="676"/>
      <point x="1408" y="531"/>
      <point x="1408" y="365" type="curve" smooth="yes"/>
      <point x="1408" y="230"/>
      <point x="1319" y="-39"/>
      <point x="929" y="-39" type="curve" smooth="yes"/>
      <point x="661" y="-39"/>
      <point x="551" y="85"/>
      <point x="444" y="77" type="curve"/>
      <point x="389" y="17"/>
      <point x="296" y="-26"/>
      <point x="176" y="-29" type="curve" smooth="yes"/>
      <point x="81" y="-32"/>
      <point x="3" y="4"/>
    </contour>
  </outline>
</glyph>
<glyph name="currency" format="1">
  <advance width="1491"/>
  <unicode hex="00A4"/>
  <outline>
    <contour>
      <point x="150" y="254" type="line"/>
      <point x="364" y="469" type="line"/>
      <point x="326" y="533"/>
      <point x="305" y="607"/>
      <point x="305" y="688" type="curve" smooth="yes"/>
      <point x="305" y="770"/>
      <point x="328" y="846"/>
      <point x="367" y="911" type="curve"/>
      <point x="156" y="1126" type="line"/>
      <point x="312" y="1286" type="line"/>
      <point x="530" y="1065" type="line"/>
      <point x="529" y="1064" type="line"/>
      <point x="590" y="1097"/>
      <point x="660" y="1116"/>
      <point x="735" y="1116" type="curve" smooth="yes"/>
      <point x="810" y="1116"/>
      <point x="881" y="1096"/>
      <point x="943" y="1063" type="curve"/>
      <point x="1183" y="1297" type="line"/>
      <point x="1341" y="1136" type="line"/>
      <point x="1106" y="906" type="line"/>
      <point x="1144" y="843"/>
      <point x="1166" y="768"/>
      <point x="1166" y="688" type="curve" smooth="yes"/>
      <point x="1166" y="610"/>
      <point x="1146" y="537"/>
      <point x="1110" y="475" type="curve"/>
      <point x="1326" y="257" type="line"/>
      <point x="1168" y="99" type="line"/>
      <point x="950" y="317" type="line"/>
      <point x="887" y="281"/>
      <point x="813" y="261"/>
      <point x="735" y="261" type="curve" smooth="yes"/>
      <point x="659" y="261"/>
      <point x="588" y="280"/>
      <point x="526" y="314" type="curve"/>
      <point x="309" y="97" type="line"/>
    </contour>
    <contour>
      <point x="553" y="688" type="curve" smooth="yes"/>
      <point x="553" y="590"/>
      <point x="637" y="498"/>
      <point x="737" y="498" type="curve" smooth="yes"/>
      <point x="837" y="498"/>
      <point x="917" y="590"/>
      <point x="917" y="688" type="curve" smooth="yes"/>
      <point x="917" y="787"/>
      <point x="837" y="877"/>
      <point x="737" y="877" type="curve" smooth="yes"/>
      <point x="637" y="877"/>
      <point x="553" y="787"/>
    </contour>
  </outline>
</glyph>
<glyph name="brokenbar" format="1">
  <advance width="1088"/>
  <unicode hex="00A6"/>
  <outline>
    <contour>
      <point x="367" y="907" type="line"/>
      <point x="367" y="1780" type="line"/>
      <point x="721" y="1780" type="line"/>
      <point x="721" y="907" type="line"/>
    </contour>
    <contour>
      <point x="367" y="-185" type="line"/>
      <point x="367" y="688" type="line"/>
      <point x="721" y="688" type="line"/>
      <point x="721" y="-185" type="line"/>
    </contour>
  </outline>
</glyph>
<glyph name="section" format="1">
  <advance width="1353"/>
  <unicode hex="00A7"/>
  <outline>
    <contour>
      <point x="185" y="-188" type="curve"/>
      <point x="185" y="213" type="line"/>
      <point x="328" y="213" type="line"/>
      <point x="425" y="7" type="line"/>
      <point x="467" y="-77"/>
      <point x="567" y="-96"/>
      <point x="652" y="-96" type="curve" smooth="yes"/>
      <point x="772" y="-96"/>
      <point x="876" y="-56"/>
      <point x="876" y="52" type="curve" smooth="yes"/>
      <point x="876" y="338"/>
      <point x="132" y="326"/>
      <point x="132" y="756" type="curve" smooth="yes"/>
      <point x="132" y="865"/>
      <point x="206" y="1008"/>
      <point x="305" y="1083" type="curve"/>
      <point x="218" y="1151"/>
      <point x="158" y="1235"/>
      <point x="158" y="1349" type="curve" smooth="yes"/>
      <point x="158" y="1619"/>
      <point x="439" y="1772"/>
      <point x="712" y="1772" type="curve" smooth="yes"/>
      <point x="891" y="1772"/>
      <point x="1034" y="1738"/>
      <point x="1097" y="1703" type="curve"/>
      <point x="1097" y="1396" type="line"/>
      <point x="955" y="1396" type="line"/>
      <point x="833" y="1567" type="line"/>
      <point x="814" y="1591"/>
      <point x="771" y="1617"/>
      <point x="685" y="1617" type="curve" smooth="yes"/>
      <point x="611" y="1617"/>
      <point x="496" y="1559"/>
      <point x="495" y="1420" type="curve" smooth="yes"/>
      <point x="493" y="1152"/>
      <point x="1194" y="1194"/>
      <point x="1191" y="733" type="curve" smooth="yes"/>
      <point x="1190" y="608"/>
      <point x="1137" y="490"/>
      <point x="1059" y="415" type="curve"/>
      <point x="1153" y="349"/>
      <point x="1220" y="266"/>
      <point x="1220" y="151" type="curve" smooth="yes"/>
      <point x="1219" y="-172"/>
      <point x="961" y="-265"/>
      <point x="670" y="-265" type="curve" smooth="yes"/>
      <point x="459" y="-265"/>
      <point x="246" y="-223"/>
    </contour>
    <contour>
      <point x="426" y="827" type="curve" smooth="yes"/>
      <point x="426" y="681"/>
      <point x="662" y="612"/>
      <point x="877" y="514" type="curve"/>
      <point x="895" y="551"/>
      <point x="912" y="599"/>
      <point x="912" y="634" type="curve" smooth="yes"/>
      <point x="912" y="793"/>
      <point x="677" y="873"/>
      <point x="470" y="981" type="curve"/>
      <point x="446" y="942"/>
      <point x="426" y="886"/>
    </contour>
  </outline>
</glyph>
<glyph name="guillemotleft" format="1">
  <advance width="2155"/>
  <unicode hex="00AB"/>
  <outline>
    <contour>
      <point x="1101" y="452" type="line"/>
      <point x="1101" y="757" type="line"/>
      <point x="1840" y="1144" type="line"/>
      <point x="1926" y="1008" type="line"/>
      <point x="1470" y="614" type="line"/>
      <point x="1926" y="238" type="line"/>
      <point x="1840" y="90" type="line"/>
    </contour>
    <contour>
      <point x="229" y="452" type="line"/>
      <point x="229" y="757" type="line"/>
      <point x="968" y="1144" type="line"/>
      <point x="1054" y="1008" type="line"/>
      <point x="598" y="614" type="line"/>
      <point x="1054" y="238" type="line"/>
      <point x="968" y="90" type="line"/>
    </contour>
  </outline>
</glyph>
<glyph name="logicalnot" format="1">
  <advance width="1392"/>
  <unicode hex="00AC"/>
  <outline>
    <contour>
      <point x="183" y="745" type="line"/>
      <point x="183" y="958" type="line"/>
      <point x="1209" y="958" type="line"/>
      <point x="1209" y="367" type="line"/>
      <point x="895" y="367" type="line"/>
      <point x="895" y="745" type="line"/>
    </contour>
  </outline>
</glyph>
<glyph name="macron" format="1">
  <advance width="1082"/>
  <unicode hex="00AF"/>
  <outline>
    <contour>
      <point x="258" y="1343" type="line"/>
      <point x="258" y="1584" type="line"/>
      <point x="824" y="1584" type="line"/>
      <point x="824" y="1343" type="line"/>
    </contour>
  </outline>
</glyph>
<glyph name="plusminus" format="1">
  <advance width="1328"/>
  <unicode hex="00B1"/>
  <outline>
    <contour>
      <point x="537" y="342" type="line"/>
      <point x="537" y="534" type="line"/>
      <point x="547" y="722" type="line"/>
      <point x="392" y="712" type="line"/>
      <point x="181" y="712" type="line"/>
      <point x="181" y="968" type="line"/>
      <point x="392" y="968" type="line"/>
      <point x="547" y="958" type="line"/>
      <point x="537" y="1146" type="line"/>
      <point x="537" y="1358" type="line"/>
      <point x="799" y="1358" type="line"/>
      <point x="799" y="1146" type="line"/>
      <point x="789" y="958" type="line"/>
      <point x="944" y="968" type="line"/>
      <point x="1155" y="968" type="line"/>
      <point x="1155" y="712" type="line"/>
      <point x="944" y="712" type="line"/>
      <point x="789" y="722" type="line"/>
      <point x="799" y="534" type="line"/>
      <point x="799" y="342" type="line"/>
    </contour>
    <contour>
      <point x="183" y="0" type="line"/>
      <point x="183" y="236" type="line"/>
      <point x="1137" y="236" type="line"/>
      <point x="1137" y="0" type="line"/>
    </contour>
  </outline>
</glyph>
<glyph name="twosuperior" format="1">
  <advance width="1238"/>
  <unicode hex="00B2"/>
  <outline>
    <contour>
      <point x="202" y="720" type="line"/>
      <point x="139" y="876" type="line"/>
      <point x="281" y="955"/>
      <point x="765" y="1224"/>
      <point x="725" y="1404" type="curve" smooth="yes"/>
      <point x="712" y="1461"/>
      <point x="664" y="1520"/>
      <point x="549" y="1520" type="curve" smooth="yes"/>
      <point x="421" y="1520"/>
      <point x="307" y="1416"/>
      <point x="242" y="1354" type="curve"/>
      <point x="159" y="1472" type="line"/>
      <point x="220" y="1580"/>
      <point x="418" y="1730"/>
      <point x="618" y="1730" type="curve" smooth="yes"/>
      <point x="897" y="1730"/>
      <point x="1047" y="1625"/>
      <point x="1047" y="1437" type="curve" smooth="yes"/>
      <point x="1047" y="1210"/>
      <point x="783" y="1071"/>
      <point x="436" y="865" type="curve"/>
      <point x="915" y="951" type="line"/>
      <point x="1015" y="1100" type="line"/>
      <point x="1178" y="1056" type="line"/>
      <point x="1110" y="720" type="line"/>
    </contour>
  </outline>
</glyph>
<glyph name="threesuperior" format="1">
  <advance width="1137"/>
  <unicode hex="00B3"/>
  <outline>
    <contour>
      <point x="198" y="656" type="curve"/>
      <point x="198" y="803" type="line"/>
      <point x="257" y="788"/>
      <point x="360" y="776"/>
      <point x="416" y="780" type="curve" smooth="yes"/>
      <point x="582" y="791"/>
      <point x="683" y="841"/>
      <point x="702" y="924" type="curve" smooth="yes"/>
      <point x="709" y="956"/>
      <point x="728" y="1082"/>
      <point x="573" y="1125" type="curve"/>
      <point x="343" y="1069" type="line"/>
      <point x="346" y="1232" type="line"/>
      <point x="509" y="1281"/>
      <point x="633" y="1336"/>
      <point x="663" y="1411" type="curve" smooth="yes"/>
      <point x="670" y="1430"/>
      <point x="670" y="1454"/>
      <point x="668" y="1478" type="curve" smooth="yes"/>
      <point x="664" y="1538"/>
      <point x="568" y="1552"/>
      <point x="523" y="1553" type="curve" smooth="yes"/>
      <point x="452" y="1555"/>
      <point x="333" y="1528"/>
      <point x="230" y="1465" type="curve"/>
      <point x="159" y="1585" type="line"/>
      <point x="233" y="1655"/>
      <point x="433" y="1726"/>
      <point x="602" y="1723" type="curve" smooth="yes"/>
      <point x="891" y="1717"/>
      <point x="971" y="1561"/>
      <point x="971" y="1483" type="curve" smooth="yes"/>
      <point x="971" y="1377"/>
      <point x="928" y="1296"/>
      <point x="775" y="1228" type="curve"/>
      <point x="1004" y="1199"/>
      <point x="1028" y="1004"/>
      <point x="1028" y="977" type="curve" smooth="yes"/>
      <point x="1028" y="802"/>
      <point x="878" y="616"/>
      <point x="525" y="616" type="curve" smooth="yes"/>
      <point x="348" y="616"/>
      <point x="255" y="642"/>
    </contour>
  </outline>
</glyph>
<glyph name="acute" format="1">
  <advance width="887"/>
  <unicode hex="00B4"/>
  <outline>
    <contour>
      <point x="454" y="1336" type="curve"/>
      <point x="366" y="1425" type="line"/>
      <point x="681" y="1851" type="line"/>
      <point x="936" y="1656" type="line"/>
      <point x="839" y="1505"/>
      <point x="625" y="1390"/>
    </contour>
  </outline>
</glyph>
<glyph name="periodcentered" format="1">
  <advance width="773"/>
  <unicode hex="00B7"/>
  <outline>
    <contour>
      <point x="367" y="641" type="curve" smooth="yes"/>
      <point x="266" y="641"/>
      <point x="164" y="708"/>
      <point x="164" y="827" type="curve" smooth="yes"/>
      <point x="164" y="956"/>
      <point x="293" y="1054"/>
      <point x="402" y="1054" type="curve" smooth="yes"/>
      <point x="543" y="1054"/>
      <point x="609" y="967"/>
      <point x="609" y="860" type="curve" smooth="yes"/>
      <point x="609" y="724"/>
      <point x="485" y="641"/>
    </contour>
  </outline>
</glyph>
<glyph name="onesuperior" format="1">
  <advance width="1124"/>
  <unicode hex="00B9"/>
  <outline>
    <contour>
      <point x="199" y="718" type="line"/>
      <point x="199" y="855" type="line"/>
      <point x="458" y="895" type="line"/>
      <point x="458" y="1414" type="line"/>
      <point x="406" y="1409"/>
      <point x="293" y="1391"/>
      <point x="227" y="1379" type="curve"/>
      <point x="191" y="1534" type="line"/>
      <point x="330" y="1557"/>
      <point x="658" y="1683"/>
      <point x="707" y="1722" type="curve"/>
      <point x="788" y="1707" type="line"/>
      <point x="788" y="894" type="line"/>
      <point x="1024" y="855" type="line"/>
      <point x="1024" y="718" type="line"/>
    </contour>
  </outline>
</glyph>
<glyph name="ordmasculine" format="1">
  <advance width="1169"/>
  <unicode hex="00BA"/>
  <outline>
    <contour>
      <point x="566" y="732" type="curve" smooth="yes"/>
      <point x="291" y="731"/>
      <point x="119" y="879"/>
      <point x="123" y="1166" type="curve" smooth="yes"/>
      <point x="127" y="1482"/>
      <point x="384" y="1588"/>
      <point x="586" y="1593" type="curve" smooth="yes"/>
      <point x="885" y="1600"/>
      <point x="1049" y="1421"/>
      <point x="1046" y="1156" type="curve" smooth="yes"/>
      <point x="1042" y="842"/>
      <point x="780" y="733"/>
    </contour>
    <contour>
      <point x="590" y="866" type="curve" smooth="yes"/>
      <point x="686" y="866"/>
      <point x="733" y="916"/>
      <point x="733" y="1151" type="curve" smooth="yes"/>
      <point x="733" y="1352"/>
      <point x="668" y="1464"/>
      <point x="590" y="1463" type="curve" smooth="yes"/>
      <point x="531" y="1462"/>
      <point x="436" y="1422"/>
      <point x="436" y="1169" type="curve" smooth="yes"/>
      <point x="436" y="964"/>
      <point x="509" y="866"/>
    </contour>
  </outline>
</glyph>
<glyph name="questiondown" format="1">
  <advance width="1063"/>
  <unicode hex="00BF"/>
  <outline>
    <contour>
      <point x="494" y="1044" type="curve" smooth="yes"/>
      <point x="393" y="1044"/>
      <point x="291" y="1111"/>
      <point x="291" y="1230" type="curve" smooth="yes"/>
      <point x="291" y="1359"/>
      <point x="420" y="1457"/>
      <point x="529" y="1457" type="curve" smooth="yes"/>
      <point x="670" y="1457"/>
      <point x="736" y="1370"/>
      <point x="736" y="1263" type="curve" smooth="yes"/>
      <point x="736" y="1127"/>
      <point x="612" y="1044"/>
    </contour>
    <contour>
      <point x="145" y="343" type="curve"/>
      <point x="180" y="402"/>
      <point x="455" y="468"/>
      <point x="537" y="565" type="curve" smooth="yes"/>
      <point x="583" y="619"/>
      <point x="481" y="842"/>
      <point x="450" y="892" type="curve"/>
      <point x="700" y="892" type="line"/>
      <point x="819" y="778"/>
      <point x="867" y="656"/>
      <point x="867" y="582" type="curve" smooth="yes"/>
      <point x="867" y="373"/>
      <point x="340" y="352"/>
      <point x="312" y="258" type="curve"/>
      <point x="327" y="-52"/>
      <point x="632" y="-131"/>
      <point x="752" y="-136" type="curve" smooth="yes"/>
      <point x="875" y="-141"/>
      <point x="945" y="-131"/>
      <point x="980" y="-103" type="curve"/>
      <point x="995" y="-375" type="line"/>
      <point x="977" y="-403"/>
      <point x="844" y="-430"/>
      <point x="745" y="-426" type="curve" smooth="yes"/>
      <point x="94" y="-398"/>
      <point x="59" y="162"/>
    </contour>
  </outline>
</glyph>
<glyph name="Acircumflex" format="1">
  <advance width="1600"/>
  <unicode hex="00C2"/>
  <outline>
    <contour>
      <point x="521" y="1597" type="line"/>
      <point x="410" y="1670" type="line"/>
      <point x="685" y="1920" type="line"/>
      <point x="917" y="1920" type="line"/>
      <point x="1187" y="1670" type="line"/>
      <point x="1075" y="1597" type="line"/>
      <point x="803" y="1726" type="line"/>
    </contour>
    <contour>
      <point x="5" y="0" type="line"/>
      <point x="5" y="140" type="line"/>
      <point x="138" y="180" type="line"/>
      <point x="631" y="1553" type="line"/>
      <point x="964" y="1553" type="line"/>
      <point x="1443" y="178" type="line"/>
      <point x="1595" y="138" type="line"/>
      <point x="1595" y="0" type="line"/>
      <point x="911" y="0" type="line"/>
      <point x="911" y="138" type="line"/>
      <point x="1045" y="183" type="line"/>
      <point x="1002" y="335" type="line"/>
      <point x="461" y="335" type="line"/>
      <point x="416" y="187" type="line"/>
      <point x="565" y="140" type="line"/>
      <point x="565" y="0" type="line"/>
    </contour>
    <contour>
      <point x="518" y="521" type="line"/>
      <point x="948" y="521" type="line"/>
      <point x="815" y="979" type="line"/>
      <point x="742" y="1253" type="line"/>
    </contour>
  </outline>
</glyph>
<glyph name="Adieresis" format="1">
  <advance width="1600"/>
  <unicode hex="00C4"/>
  <outline>
    <contour>
      <point x="1060" y="1619" type="curve" smooth="yes"/>
      <point x="967" y="1619"/>
      <point x="879" y="1669"/>
      <point x="879" y="1759" type="curve" smooth="yes"/>
      <point x="879" y="1852"/>
      <point x="985" y="1920"/>
      <point x="1086" y="1920" type="curve" smooth="yes"/>
      <point x="1216" y="1920"/>
      <point x="1264" y="1860"/>
      <point x="1264" y="1782" type="curve" smooth="yes"/>
      <point x="1264" y="1682"/>
      <point x="1167" y="1619"/>
    </contour>
    <contour>
      <point x="512" y="1618" type="curve" smooth="yes"/>
      <point x="416" y="1618"/>
      <point x="335" y="1667"/>
      <point x="335" y="1756" type="curve" smooth="yes"/>
      <point x="335" y="1852"/>
      <point x="437" y="1920"/>
      <point x="540" y="1920" type="curve" smooth="yes"/>
      <point x="670" y="1920"/>
      <point x="724" y="1859"/>
      <point x="724" y="1780" type="curve" smooth="yes"/>
      <point x="724" y="1681"/>
      <point x="622" y="1618"/>
    </contour>
    <contour>
      <point x="5" y="0" type="line"/>
      <point x="5" y="140" type="line"/>
      <point x="138" y="180" type="line"/>
      <point x="631" y="1553" type="line"/>
      <point x="964" y="1553" type="line"/>
      <point x="1443" y="178" type="line"/>
      <point x="1595" y="138" type="line"/>
      <point x="1595" y="0" type="line"/>
      <point x="911" y="0" type="line"/>
      <point x="911" y="138" type="line"/>
      <point x="1045" y="183" type="line"/>
      <point x="1002" y="335" type="line"/>
      <point x="461" y="335" type="line"/>
      <point x="416" y="187" type="line"/>
      <point x="565" y="140" type="line"/>
      <point x="565" y="0" type="line"/>
    </contour>
    <contour>
      <point x="518" y="521" type="line"/>
      <point x="948" y="521" type="line"/>
      <point x="815" y="979" type="line"/>
      <point x="742" y="1253" type="line"/>
    </contour>
  </outline>
</glyph>
<glyph name="Aring" format="1">
  <advance width="1600"/>
  <unicode hex="00C5"/>
  <outline>
    <contour>
      <point x="5" y="0" type="line"/>
      <point x="5" y="140" type="line"/>
      <point x="138" y="180" type="line"/>
      <point x="606" y="1483" type="line"/>
      <point x="544" y="1524"/>
      <point x="503" y="1588"/>
      <point x="503" y="1673" type="curve" smooth="yes"/>
      <point x="503" y="1831"/>
      <point x="630" y="1920"/>
      <point x="800" y="1920" type="curve" smooth="yes"/>
      <point x="972" y="1920"/>
      <point x="1099" y="1826"/>
      <point x="1099" y="1673" type="curve" smooth="yes"/>
      <point x="1099" y="1585"/>
      <point x="1055" y="1520"/>
      <point x="990" y="1479" type="curve"/>
      <point x="1443" y="178" type="line"/>
      <point x="1595" y="138" type="line"/>
      <point x="1595" y="0" type="line"/>
      <point x="911" y="0" type="line"/>
      <point x="911" y="138" type="line"/>
      <point x="1045" y="183" type="line"/>
      <point x="1002" y="335" type="line"/>
      <point x="461" y="335" type="line"/>
      <point x="416" y="187" type="line"/>
      <point x="565" y="140" type="line"/>
      <point x="565" y="0" type="line"/>
    </contour>
    <contour>
      <point x="800" y="1555" type="curve" smooth="yes"/>
      <point x="871" y="1555"/>
      <point x="925" y="1605"/>
      <point x="925" y="1674" type="curve" smooth="yes"/>
      <point x="925" y="1739"/>
      <point x="871" y="1794"/>
      <point x="800" y="1794" type="curve" smooth="yes"/>
      <point x="725" y="1794"/>
      <point x="674" y="1743"/>
      <point x="674" y="1674" type="curve" smooth="yes"/>
      <point x="674" y="1605"/>
      <point x="725" y="1555"/>
    </contour>
    <contour>
      <point x="518" y="521" type="line"/>
      <point x="948" y="521" type="line"/>
      <point x="815" y="979" type="line"/>
      <point x="742" y="1253" type="line"/>
    </contour>
  </outline>
</glyph>
<glyph name="AE" format="1">
  <advance width="1937"/>
  <unicode hex="00C6"/>
  <outline>
    <contour>
      <point x="5" y="0" type="line"/>
      <point x="5" y="141" type="line"/>
      <point x="126" y="174" type="line"/>
      <point x="680" y="1553" type="line"/>
      <point x="1743" y="1553" type="line"/>
      <point x="1779" y="1211" type="line"/>
      <point x="1586" y="1211" type="line"/>
      <point x="1521" y="1360" type="line"/>
      <point x="1092" y="1382" type="line"/>
      <point x="1242" y="899" type="line"/>
      <point x="1494" y="905" type="line"/>
      <point x="1531" y="1055" type="line"/>
      <point x="1690" y="1055" type="line"/>
      <point x="1690" y="560" type="line"/>
      <point x="1530" y="560" type="line"/>
      <point x="1491" y="704" type="line"/>
      <point x="1298" y="719" type="line"/>
      <point x="1474" y="149" type="line"/>
      <point x="1642" y="178" type="line"/>
      <point x="1753" y="366" type="line"/>
      <point x="1927" y="332" type="line"/>
      <point x="1876" y="0" type="line"/>
      <point x="937" y="0" type="line"/>
      <point x="937" y="140" type="line"/>
      <point x="1095" y="181" type="line"/>
      <point x="1049" y="336" type="line"/>
      <point x="437" y="336" type="line"/>
      <point x="378" y="182" type="line"/>
      <point x="555" y="141" type="line"/>
      <point x="555" y="0" type="line"/>
    </contour>
    <contour>
      <point x="511" y="531" type="line"/>
      <point x="992" y="531" type="line"/>
      <point x="821" y="1112" type="line"/>
      <point x="788" y="1262" type="line"/>
    </contour>
  </outline>
</glyph>
<glyph name="Ecircumflex" format="1">
  <advance width="1426"/>
  <unicode hex="00CA"/>
  <outline>
    <contour>
      <point x="463" y="1597" type="line"/>
      <point x="352" y="1670" type="line"/>
      <point x="627" y="1920" type="line"/>
      <point x="859" y="1920" type="line"/>
      <point x="1129" y="1670" type="line"/>
      <point x="1017" y="1597" type="line"/>
      <point x="745" y="1726" type="line"/>
    </contour>
    <contour>
      <point x="101" y="0" type="line"/>
      <point x="101" y="140" type="line"/>
      <point x="248" y="179" type="line"/>
      <point x="248" y="1367" type="line"/>
      <point x="106" y="1389" type="line"/>
      <point x="106" y="1553" type="line"/>
      <point x="1241" y="1553" type="line"/>
      <point x="1272" y="1211" type="line"/>
      <point x="1067" y="1211" type="line"/>
      <point x="973" y="1371" type="line"/>
      <point x="603" y="1392" type="line"/>
      <point x="603" y="873" type="line"/>
      <point x="859" y="883" type="line"/>
      <point x="913" y="1032" type="line"/>
      <point x="1094" y="1032" type="line"/>
      <point x="1094" y="544" type="line"/>
      <point x="913" y="544" type="line"/>
      <point x="859" y="703" type="line"/>
      <point x="603" y="709" type="line"/>
      <point x="603" y="160" type="line"/>
      <point x="1042" y="188" type="line"/>
      <point x="1169" y="386" type="line"/>
      <point x="1377" y="349" type="line"/>
      <point x="1323" y="0" type="line"/>
    </contour>
  </outline>
</glyph>
<glyph name="Ntilde" format="1">
  <advance width="1686"/>
  <unicode hex="00D1"/>
  <outline>
    <contour>
      <point x="525" y="1634" type="curve"/>
      <point x="438" y="1712" type="line"/>
      <point x="482" y="1830"/>
      <point x="654" y="1920"/>
      <point x="746" y="1920" type="curve" smooth="yes"/>
      <point x="892" y="1920"/>
      <point x="954" y="1820"/>
      <point x="1039" y="1820" type="curve" smooth="yes"/>
      <point x="1110" y="1820"/>
      <point x="1161" y="1853"/>
      <point x="1205" y="1891" type="curve"/>
      <point x="1294" y="1794" type="line"/>
      <point x="1249" y="1676"/>
      <point x="1086" y="1603"/>
      <point x="993" y="1603" type="curve" smooth="yes"/>
      <point x="848" y="1603"/>
      <point x="779" y="1706"/>
      <point x="693" y="1706" type="curve" smooth="yes"/>
      <point x="634" y="1706"/>
      <point x="572" y="1672"/>
    </contour>
    <contour>
      <point x="63" y="0" type="line"/>
      <point x="63" y="140" type="line"/>
      <point x="220" y="185" type="line"/>
      <point x="220" y="1346" type="line"/>
      <point x="70" y="1368" type="line"/>
      <point x="70" y="1553" type="line"/>
      <point x="579" y="1553" type="line"/>
      <point x="1181" y="505" type="line"/>
      <point x="1269" y="269" type="line"/>
      <point x="1269" y="1342" type="line"/>
      <point x="1089" y="1370" type="line"/>
      <point x="1089" y="1553" type="line"/>
      <point x="1633" y="1553" type="line"/>
      <point x="1633" y="1370" type="line"/>
      <point x="1496" y="1348" type="line"/>
      <point x="1496" y="0" type="line"/>
      <point x="1104" y="0" type="line"/>
      <point x="559" y="917" type="line"/>
      <point x="450" y="1187" type="line"/>
      <point x="450" y="855"/>
      <point x="451" y="517"/>
      <point x="451" y="189" type="curve"/>
      <point x="654" y="140" type="line"/>
      <point x="654" y="0" type="line"/>
    </contour>
  </outline>
</glyph>
<glyph name="Ograve" format="1">
  <advance width="1600"/>
  <unicode hex="00D2"/>
  <outline>
    <contour>
      <point x="392" y="1728" type="curve"/>
      <point x="585" y="1920" type="line"/>
      <point x="958" y="1700" type="line"/>
      <point x="857" y="1593" type="line"/>
      <point x="812" y="1590"/>
      <point x="505" y="1643"/>
    </contour>
    <contour>
      <point x="66" y="754" type="curve"/>
      <point x="78" y="1258"/>
      <point x="437" y="1567"/>
      <point x="818" y="1567" type="curve" smooth="yes"/>
      <point x="1254" y="1567"/>
      <point x="1543" y="1237"/>
      <point x="1534" y="790" type="curve" smooth="yes"/>
      <point x="1523" y="286"/>
      <point x="1211" y="-28"/>
      <point x="797" y="-28" type="curve" smooth="yes"/>
      <point x="343" y="-28"/>
      <point x="57" y="313"/>
    </contour>
    <contour>
      <point x="810" y="132" type="curve" smooth="yes"/>
      <point x="1070" y="132"/>
      <point x="1142" y="350"/>
      <point x="1142" y="789" type="curve" smooth="yes"/>
      <point x="1142" y="1050"/>
      <point x="1052" y="1402"/>
      <point x="809" y="1402" type="curve" smooth="yes"/>
      <point x="544" y="1402"/>
      <point x="459" y="1173"/>
      <point x="459" y="755" type="curve" smooth="yes"/>
      <point x="459" y="520"/>
      <point x="553" y="132"/>
    </contour>
  </outline>
</glyph>
<glyph name="Odieresis" format="1">
  <advance width="1600"/>
  <unicode hex="00D6"/>
  <outline>
    <contour>
      <point x="1075" y="1619" type="curve" smooth="yes"/>
      <point x="982" y="1619"/>
      <point x="894" y="1669"/>
      <point x="894" y="1759" type="curve" smooth="yes"/>
      <point x="894" y="1852"/>
      <point x="1000" y="1920"/>
      <point x="1101" y="1920" type="curve" smooth="yes"/>
      <point x="1231" y="1920"/>
      <point x="1279" y="1860"/>
      <point x="1279" y="1782" type="curve" smooth="yes"/>
      <point x="1279" y="1682"/>
      <point x="1182" y="1619"/>
    </contour>
    <contour>
      <point x="527" y="1618" type="curve" smooth="yes"/>
      <point x="431" y="1618"/>
      <point x="350" y="1667"/>
      <point x="350" y="1756" type="curve" smooth="yes"/>
      <point x="350" y="1852"/>
      <point x="452" y="1920"/>
      <point x="555" y="1920" type="curve" smooth="yes"/>
      <point x="685" y="1920"/>
      <point x="739" y="1859"/>
      <point x="739" y="1780" type="curve" smooth="yes"/>
      <point x="739" y="1681"/>
      <point x="637" y="1618"/>
    </contour>
    <contour>
      <point x="66" y="754" type="curve"/>
      <point x="78" y="1258"/>
      <point x="437" y="1567"/>
      <point x="818" y="1567" type="curve" smooth="yes"/>
      <point x="1254" y="1567"/>
      <point x="1543" y="1237"/>
      <point x="1534" y="790" type="curve" smooth="yes"/>
      <point x="1523" y="286"/>
      <point x="1211" y="-28"/>
      <point x="797" y="-28" type="curve" smooth="yes"/>
      <point x="343" y="-28"/>
      <point x="57" y="313"/>
    </contour>
    <contour>
      <point x="810" y="132" type="curve" smooth="yes"/>
      <point x="1070" y="132"/>
      <point x="1142" y="350"/>
      <point x="1142" y="789" type="curve" smooth="yes"/>
      <point x="1142" y="1050"/>
      <point x="1052" y="1402"/>
      <point x="809" y="1402" type="curve" smooth="yes"/>
      <point x="544" y="1402"/>
      <point x="459" y="1173"/>
      <point x="459" y="755" type="curve" smooth="yes"/>
      <point x="459" y="520"/>
      <point x="553" y="132"/>
    </contour>
  </outline>
</glyph>
<glyph name="Uacute" format="1">
  <advance width="1601"/>
  <unicode hex="00DA"/>
  <outline>
    <contour>
      <point x="814" y="1593" type="curve"/>
      <point x="713" y="1700" type="line"/>
      <point x="1106" y="1920" type="line"/>
      <point x="1299" y="1728" type="line"/>
      <point x="1186" y="1643"/>
      <point x="859" y="1590"/>
    </contour>
    <contour>
      <point x="189" y="625" type="curve" smooth="yes"/>
      <point x="193" y="1365" type="line"/>
      <point x="35" y="1389" type="line"/>
      <point x="35" y="1553" type="line"/>
      <point x="717" y="1553" type="line"/>
      <point x="717" y="1389" type="line"/>
      <point x="548" y="1366" type="line"/>
      <point x="548" y="610" type="line" smooth="yes"/>
      <point x="548" y="206"/>
      <point x="730" y="150"/>
      <point x="892" y="150" type="curve" smooth="yes"/>
      <point x="1075" y="150"/>
      <point x="1213" y="263"/>
      <point x="1211" y="666" type="curve" smooth="yes"/>
      <point x="1208" y="1363" type="line"/>
      <point x="1040" y="1389" type="line"/>
      <point x="1040" y="1553" type="line"/>
      <point x="1579" y="1553" type="line"/>
      <point x="1579" y="1389" type="line"/>
      <point x="1435" y="1363" type="line"/>
      <point x="1435" y="667" type="line" smooth="yes"/>
      <point x="1435" y="120"/>
      <point x="1154" y="-28"/>
      <point x="848" y="-28" type="curve" smooth="yes"/>
      <point x="400" y="-28"/>
      <point x="187" y="184"/>
    </contour>
  </outline>
</glyph>
<glyph name="Ucircumflex" format="1">
  <advance width="1601"/>
  <unicode hex="00DB"/>
  <outline>
    <contour>
      <point x="587" y="1597" type="line"/>
      <point x="476" y="1670" type="line"/>
      <point x="751" y="1920" type="line"/>
      <point x="983" y="1920" type="line"/>
      <point x="1253" y="1670" type="line"/>
      <point x="1141" y="1597" type="line"/>
      <point x="869" y="1726" type="line"/>
    </contour>
    <contour>
      <point x="189" y="625" type="curve" smooth="yes"/>
      <point x="193" y="1365" type="line"/>
      <point x="35" y="1389" type="line"/>
      <point x="35" y="1553" type="line"/>
      <point x="717" y="1553" type="line"/>
      <point x="717" y="1389" type="line"/>
      <point x="548" y="1366" type="line"/>
      <point x="548" y="610" type="line" smooth="yes"/>
      <point x="548" y="206"/>
      <point x="730" y="150"/>
      <point x="892" y="150" type="curve" smooth="yes"/>
      <point x="1075" y="150"/>
      <point x="1213" y="263"/>
      <point x="1211" y="666" type="curve" smooth="yes"/>
      <point x="1208" y="1363" type="line"/>
      <point x="1040" y="1389" type="line"/>
      <point x="1040" y="1553" type="line"/>
      <point x="1579" y="1553" type="line"/>
      <point x="1579" y="1389" type="line"/>
      <point x="1435" y="1363" type="line"/>
      <point x="1435" y="667" type="line" smooth="yes"/>
      <point x="1435" y="120"/>
      <point x="1154" y="-28"/>
      <point x="848" y="-28" type="curve" smooth="yes"/>
      <point x="400" y="-28"/>
      <point x="187" y="184"/>
    </contour>
  </outline>
</glyph>
<glyph name="Udieresis" format="1">
  <advance width="1601"/>
  <unicode hex="00DC"/>
  <outline>
    <contour>
      <point x="1126" y="1619" type="curve" smooth="yes"/>
      <point x="1033" y="1619"/>
      <point x="945" y="1669"/>
      <point x="945" y="1759" type="curve" smooth="yes"/>
      <point x="945" y="1852"/>
      <point x="1051" y="1920"/>
      <point x="1152" y="1920" type="curve" smooth="yes"/>
      <point x="1282" y="1920"/>
      <point x="1330" y="1860"/>
      <point x="1330" y="1782" type="curve" smooth="yes"/>
      <point x="1330" y="1682"/>
      <point x="1233" y="1619"/>
    </contour>
    <contour>
      <point x="578" y="1618" type="curve" smooth="yes"/>
      <point x="482" y="1618"/>
      <point x="401" y="1667"/>
      <point x="401" y="1756" type="curve" smooth="yes"/>
      <point x="401" y="1852"/>
      <point x="503" y="1920"/>
      <point x="606" y="1920" type="curve" smooth="yes"/>
      <point x="736" y="1920"/>
      <point x="790" y="1859"/>
      <point x="790" y="1780" type="curve" smooth="yes"/>
      <point x="790" y="1681"/>
      <point x="688" y="1618"/>
    </contour>
    <contour>
      <point x="189" y="625" type="curve" smooth="yes"/>
      <point x="193" y="1365" type="line"/>
      <point x="35" y="1389" type="line"/>
      <point x="35" y="1553" type="line"/>
      <point x="717" y="1553" type="line"/>
      <point x="717" y="1389" type="line"/>
      <point x="548" y="1366" type="line"/>
      <point x="548" y="610" type="line" smooth="yes"/>
      <point x="548" y="206"/>
      <point x="730" y="150"/>
      <point x="892" y="150" type="curve" smooth="yes"/>
      <point x="1075" y="150"/>
      <point x="1213" y="263"/>
      <point x="1211" y="666" type="curve" smooth="yes"/>
      <point x="1208" y="1363" type="line"/>
      <point x="1040" y="1389" type="line"/>
      <point x="1040" y="1553" type="line"/>
      <point x="1579" y="1553" type="line"/>
      <point x="1579" y="1389" type="line"/>
      <point x="1435" y="1363" type="line"/>
      <point x="1435" y="667" type="line" smooth="yes"/>
      <point x="1435" y="120"/>
      <point x="1154" y="-28"/>
      <point x="848" y="-28" type="curve" smooth="yes"/>
      <point x="400" y="-28"/>
      <point x="187" y="184"/>
    </contour>
  </outline>
</glyph>
<glyph name="Yacute" format="1">
  <advance width="1470"/>
  <unicode hex="00DD"/>
  <outline>
    <contour>
      <point x="712" y="1593" type="curve"/>
      <point x="611" y="1700" type="line"/>
      <point x="1004" y="1920" type="line"/>
      <point x="1197" y="1728" type="line"/>
      <point x="1084" y="1643"/>
      <point x="757" y="1590"/>
    </contour>
    <contour>
      <point x="344" y="0" type="line"/>
      <point x="344" y="140" type="line"/>
      <point x="584" y="185" type="line"/>
      <point x="584" y="511" type="line"/>
      <point x="118" y="1370" type="line"/>
      <point x="8" y="1389" type="line"/>
      <point x="8" y="1553" type="line"/>
      <point x="638" y="1553" type="line"/>
      <point x="638" y="1392" type="line"/>
      <point x="532" y="1372" type="line"/>
      <point x="784" y="841" type="line"/>
      <point x="813" y="747" type="line"/>
      <point x="846" y="850" type="line"/>
      <point x="1059" y="1364" type="line"/>
      <point x="900" y="1389" type="line"/>
      <point x="900" y="1444"/>
      <point x="899" y="1498"/>
      <point x="899" y="1553" type="curve"/>
      <point x="1462" y="1553" type="line"/>
      <point x="1462" y="1389" type="line"/>
      <point x="1330" y="1352" type="line"/>
      <point x="940" y="543" type="line"/>
      <point x="940" y="188" type="line"/>
      <point x="1209" y="140" type="line"/>
      <point x="1209" y="0" type="line"/>
    </contour>
  </outline>
</glyph>
<glyph name="germandbls" format="1">
  <advance width="1478"/>
  <unicode hex="00DF"/>
  <outline>
    <contour>
      <point x="46" y="0" type="line"/>
      <point x="46" y="144" type="line"/>
      <point x="198" y="194" type="line"/>
      <point x="198" y="865" type="line" smooth="yes"/>
      <point x="198" y="1393"/>
      <point x="530" y="1553"/>
      <point x="851" y="1553" type="curve" smooth="yes"/>
      <point x="997" y="1553"/>
      <point x="1240" y="1489"/>
      <point x="1240" y="1276" type="curve" smooth="yes"/>
      <point x="1240" y="1043"/>
      <point x="963" y="1027"/>
      <point x="963" y="866" type="curve" smooth="yes"/>
      <point x="963" y="638"/>
      <point x="1448" y="724"/>
      <point x="1448" y="384" type="curve" smooth="yes"/>
      <point x="1448" y="158"/>
      <point x="1318" y="-23"/>
      <point x="984" y="-23" type="curve" smooth="yes"/>
      <point x="893" y="-23"/>
      <point x="709" y="-11"/>
      <point x="675" y="18" type="curve"/>
      <point x="675" y="215" type="line"/>
      <point x="720" y="180"/>
      <point x="818" y="132"/>
      <point x="933" y="132" type="curve" smooth="yes"/>
      <point x="1026" y="132"/>
      <point x="1110" y="186"/>
      <point x="1110" y="297" type="curve" smooth="yes"/>
      <point x="1110" y="530"/>
      <point x="671" y="374"/>
      <point x="671" y="748" type="curve" smooth="yes"/>
      <point x="671" y="966"/>
      <point x="918" y="979"/>
      <point x="918" y="1222" type="curve" smooth="yes"/>
      <point x="918" y="1320"/>
      <point x="874" y="1393"/>
      <point x="774" y="1393" type="curve" smooth="yes"/>
      <point x="632" y="1393"/>
      <point x="552" y="1288"/>
      <point x="552" y="978" type="curve" smooth="yes"/>
      <point x="552" y="0" type="line"/>
    </contour>
  </outline>
</glyph>
<glyph name="agrave" format="1">
  <advance width="1226"/>
  <unicode hex="00E0"/>
  <outline>
    <contour>
      <point x="704" y="1337" type="line"/>
      <point x="543" y="1332"/>
      <point x="323" y="1511"/>
      <point x="222" y="1657" type="curve"/>
      <point x="477" y="1852" type="line"/>
      <point x="792" y="1426" type="line"/>
    </contour>
    <contour>
      <point x="71" y="394" type="curve" smooth="yes"/>
      <point x="127" y="628"/>
      <point x="526" y="702"/>
      <point x="724" y="702" type="curve"/>
      <point x="724" y="915"/>
      <point x="647" y="960"/>
      <point x="511" y="960" type="curve" smooth="yes"/>
      <point x="338" y="960"/>
      <point x="209" y="895"/>
      <point x="180" y="874" type="curve"/>
      <point x="112" y="1028" type="line"/>
      <point x="154" y="1064"/>
      <point x="335" y="1151"/>
      <point x="618" y="1151" type="curve" smooth="yes"/>
      <point x="887" y="1151"/>
      <point x="1078" y="1066"/>
      <point x="1078" y="740" type="curve" smooth="yes"/>
      <point x="1078" y="136" type="line"/>
      <point x="1209" y="136" type="line"/>
      <point x="1209" y="29" type="line"/>
      <point x="1141" y="-18"/>
      <point x="1027" y="-28"/>
      <point x="950" y="-28" type="curve" smooth="yes"/>
      <point x="899" y="-28"/>
      <point x="775" y="-11"/>
      <point x="770" y="86" type="curve"/>
      <point x="701" y="21"/>
      <point x="608" y="-28"/>
      <point x="480" y="-28" type="curve" smooth="yes"/>
      <point x="131" y="-28"/>
      <point x="19" y="177"/>
    </contour>
    <contour>
      <point x="417" y="335" type="curve" smooth="yes"/>
      <point x="417" y="206"/>
      <point x="492" y="147"/>
      <point x="633" y="167" type="curve" smooth="yes"/>
      <point x="669" y="172"/>
      <point x="698" y="187"/>
      <point x="723" y="206" type="curve"/>
      <point x="723" y="320"/>
      <point x="724" y="435"/>
      <point x="724" y="549" type="curve"/>
      <point x="599" y="549"/>
      <point x="417" y="511"/>
    </contour>
  </outline>
</glyph>
<glyph name="aring" format="1">
  <advance width="1226"/>
  <unicode hex="00E5"/>
  <outline>
    <contour>
      <point x="584" y="1285" type="curve" smooth="yes"/>
      <point x="423" y="1285"/>
      <point x="291" y="1408"/>
      <point x="291" y="1560" type="curve" smooth="yes"/>
      <point x="291" y="1711"/>
      <point x="423" y="1835"/>
      <point x="584" y="1835" type="curve" smooth="yes"/>
      <point x="747" y="1835"/>
      <point x="879" y="1706"/>
      <point x="879" y="1560" type="curve" smooth="yes"/>
      <point x="879" y="1408"/>
      <point x="747" y="1285"/>
    </contour>
    <contour>
      <point x="584" y="1427" type="curve" smooth="yes"/>
      <point x="659" y="1427"/>
      <point x="716" y="1483"/>
      <point x="716" y="1560" type="curve" smooth="yes"/>
      <point x="716" y="1633"/>
      <point x="659" y="1694"/>
      <point x="584" y="1694" type="curve" smooth="yes"/>
      <point x="505" y="1694"/>
      <point x="451" y="1637"/>
      <point x="451" y="1560" type="curve" smooth="yes"/>
      <point x="451" y="1483"/>
      <point x="505" y="1427"/>
    </contour>
    <contour>
      <point x="71" y="394" type="curve" smooth="yes"/>
      <point x="127" y="628"/>
      <point x="526" y="702"/>
      <point x="724" y="702" type="curve"/>
      <point x="724" y="915"/>
      <point x="647" y="960"/>
      <point x="511" y="960" type="curve" smooth="yes"/>
      <point x="338" y="960"/>
      <point x="209" y="895"/>
      <point x="180" y="874" type="curve"/>
      <point x="112" y="1028" type="line"/>
      <point x="154" y="1064"/>
      <point x="335" y="1151"/>
      <point x="618" y="1151" type="curve" smooth="yes"/>
      <point x="887" y="1151"/>
      <point x="1078" y="1066"/>
      <point x="1078" y="740" type="curve" smooth="yes"/>
      <point x="1078" y="136" type="line"/>
      <point x="1209" y="136" type="line"/>
      <point x="1209" y="29" type="line"/>
      <point x="1141" y="-18"/>
      <point x="1027" y="-28"/>
      <point x="950" y="-28" type="curve" smooth="yes"/>
      <point x="899" y="-28"/>
      <point x="775" y="-11"/>
      <point x="770" y="86" type="curve"/>
      <point x="701" y="21"/>
      <point x="608" y="-28"/>
      <point x="480" y="-28" type="curve" smooth="yes"/>
      <point x="131" y="-28"/>
      <point x="19" y="177"/>
    </contour>
    <contour>
      <point x="417" y="335" type="curve" smooth="yes"/>
      <point x="417" y="206"/>
      <point x="492" y="147"/>
      <point x="633" y="167" type="curve" smooth="yes"/>
      <point x="669" y="172"/>
      <point x="698" y="187"/>
      <point x="723" y="206" type="curve"/>
      <point x="723" y="320"/>
      <point x="724" y="435"/>
      <point x="724" y="549" type="curve"/>
      <point x="599" y="549"/>
      <point x="417" y="511"/>
    </contour>
  </outline>
</glyph>
<glyph name="ae" format="1">
  <advance width="1893"/>
  <unicode hex="00E6"/>
  <outline>
    <contour>
      <point x="71" y="394" type="curve" smooth="yes"/>
      <point x="127" y="628"/>
      <point x="526" y="702"/>
      <point x="724" y="702" type="curve"/>
      <point x="724" y="725"/>
      <point x="723" y="747"/>
      <point x="721" y="766" type="curve" smooth="yes"/>
      <point x="706" y="924"/>
      <point x="632" y="955"/>
      <point x="511" y="955" type="curve" smooth="yes"/>
      <point x="338" y="955"/>
      <point x="209" y="890"/>
      <point x="180" y="869" type="curve"/>
      <point x="112" y="1028" type="line"/>
      <point x="154" y="1064"/>
      <point x="335" y="1151"/>
      <point x="618" y="1151" type="curve" smooth="yes"/>
      <point x="767" y="1151"/>
      <point x="893" y="1125"/>
      <point x="975" y="1045" type="curve"/>
      <point x="1072" y="1112"/>
      <point x="1195" y="1151"/>
      <point x="1341" y="1151" type="curve" smooth="yes"/>
      <point x="1665" y="1151"/>
      <point x="1798" y="977"/>
      <point x="1807" y="733" type="curve" smooth="yes"/>
      <point x="1810" y="650"/>
      <point x="1801" y="586"/>
      <point x="1793" y="530" type="curve"/>
      <point x="1086" y="530" type="line"/>
      <point x="1105" y="295"/>
      <point x="1211" y="173"/>
      <point x="1413" y="173" type="curve" smooth="yes"/>
      <point x="1510" y="173"/>
      <point x="1634" y="196"/>
      <point x="1742" y="244" type="curve"/>
      <point x="1795" y="115" type="line"/>
      <point x="1693" y="30"/>
      <point x="1488" y="-32"/>
      <point x="1294" y="-28" type="curve" smooth="yes"/>
      <point x="1117" y="-24"/>
      <point x="978" y="23"/>
      <point x="882" y="111" type="curve"/>
      <point x="802" y="32"/>
      <point x="676" y="-28"/>
      <point x="480" y="-28" type="curve" smooth="yes"/>
      <point x="131" y="-28"/>
      <point x="19" y="177"/>
    </contour>
    <contour>
      <point x="1085" y="691" type="curve"/>
      <point x="1463" y="691" type="line"/>
      <point x="1473" y="818"/>
      <point x="1499" y="1011"/>
      <point x="1309" y="1011" type="curve" smooth="yes"/>
      <point x="1270" y="1011"/>
      <point x="1235" y="999"/>
      <point x="1205" y="976" type="curve" smooth="yes"/>
      <point x="1139" y="926"/>
      <point x="1096" y="826"/>
    </contour>
    <contour>
      <point x="417" y="335" type="curve" smooth="yes"/>
      <point x="417" y="206"/>
      <point x="492" y="147"/>
      <point x="633" y="167" type="curve" smooth="yes"/>
      <point x="674" y="173"/>
      <point x="702" y="184"/>
      <point x="723" y="196" type="curve"/>
      <point x="723" y="314"/>
      <point x="724" y="431"/>
      <point x="724" y="549" type="curve"/>
      <point x="599" y="549"/>
      <point x="417" y="511"/>
    </contour>
  </outline>
</glyph>
<glyph name="ccedilla" format="1">
  <advance width="1134"/>
  <unicode hex="00E7"/>
  <outline>
    <contour>
      <point x="74" y="525" type="curve" smooth="yes"/>
      <point x="72" y="913"/>
      <point x="348" y="1139"/>
      <point x="695" y="1151" type="curve" smooth="yes"/>
      <point x="832" y="1155"/>
      <point x="1004" y="1133"/>
      <point x="1064" y="1099" type="curve"/>
      <point x="1064" y="782" type="line"/>
      <point x="881" y="782" type="line"/>
      <point x="802" y="970" type="line"/>
      <point x="765" y="992"/>
      <point x="713" y="995"/>
      <point x="670" y="995" type="curve" smooth="yes"/>
      <point x="534" y="995"/>
      <point x="449" y="858"/>
      <point x="441" y="624" type="curve" smooth="yes"/>
      <point x="430" y="301"/>
      <point x="589" y="169"/>
      <point x="767" y="169" type="curve" smooth="yes"/>
      <point x="888" y="169"/>
      <point x="999" y="203"/>
      <point x="1048" y="240" type="curve"/>
      <point x="1101" y="115" type="line"/>
      <point x="1011" y="37"/>
      <point x="878" y="-11"/>
      <point x="717" y="-24" type="curve"/>
      <point x="716" y="-59"/>
      <point x="719" y="-103"/>
      <point x="722" y="-133" type="curve"/>
      <point x="890" y="-150"/>
      <point x="936" y="-264"/>
      <point x="936" y="-326" type="curve" smooth="yes"/>
      <point x="936" y="-459"/>
      <point x="830" y="-526"/>
      <point x="675" y="-533" type="curve" smooth="yes"/>
      <point x="551" y="-539"/>
      <point x="454" y="-514"/>
      <point x="411" y="-503" type="curve"/>
      <point x="411" y="-354" type="line"/>
      <point x="443" y="-362"/>
      <point x="520" y="-368"/>
      <point x="537" y="-368" type="curve" smooth="yes"/>
      <point x="580" y="-368"/>
      <point x="606" y="-346"/>
      <point x="606" y="-312" type="curve" smooth="yes"/>
      <point x="606" y="-273"/>
      <point x="577" y="-255"/>
      <point x="544" y="-255" type="curve" smooth="yes"/>
      <point x="528" y="-255"/>
      <point x="490" y="-258"/>
      <point x="486" y="-259" type="curve"/>
      <point x="487" y="-205"/>
      <point x="508" y="-83"/>
      <point x="530" y="-21" type="curve"/>
      <point x="234" y="18"/>
      <point x="76" y="237"/>
    </contour>
  </outline>
</glyph>
<glyph name="igrave" format="1">
  <advance width="748"/>
  <unicode hex="00EC"/>
  <outline>
    <contour>
      <point x="510" y="1337" type="line"/>
      <point x="349" y="1332"/>
      <point x="129" y="1511"/>
      <point x="28" y="1657" type="curve"/>
      <point x="283" y="1852" type="line"/>
      <point x="598" y="1426" type="line"/>
    </contour>
    <contour>
      <point x="79" y="0" type="line"/>
      <point x="79" y="136" type="line"/>
      <point x="214" y="164" type="line"/>
      <point x="214" y="786" type="line"/>
      <point x="86" y="930" type="line"/>
      <point x="86" y="1023" type="line"/>
      <point x="482" y="1157" type="line"/>
      <point x="567" y="1132" type="line"/>
      <point x="567" y="162" type="line"/>
      <point x="708" y="136" type="line"/>
      <point x="708" y="0" type="line"/>
    </contour>
  </outline>
</glyph>
<glyph name="iacute" format="1">
  <advance width="748"/>
  <unicode hex="00ED"/>
  <outline>
    <contour>
      <point x="341" y="1336" type="curve"/>
      <point x="253" y="1425" type="line"/>
      <point x="568" y="1851" type="line"/>
      <point x="823" y="1656" type="line"/>
      <point x="726" y="1505"/>
      <point x="512" y="1390"/>
    </contour>
    <contour>
      <point x="79" y="0" type="line"/>
      <point x="79" y="136" type="line"/>
      <point x="214" y="164" type="line"/>
      <point x="214" y="786" type="line"/>
      <point x="86" y="930" type="line"/>
      <point x="86" y="1023" type="line"/>
      <point x="482" y="1157" type="line"/>
      <point x="567" y="1132" type="line"/>
      <point x="567" y="162" type="line"/>
      <point x="708" y="136" type="line"/>
      <point x="708" y="0" type="line"/>
    </contour>
  </outline>
</glyph>
<glyph name="ntilde" format="1">
  <advance width="1466"/>
  <unicode hex="00F1"/>
  <outline>
    <contour>
      <point x="423" y="1369" type="curve"/>
      <point x="336" y="1467" type="line"/>
      <point x="380" y="1585"/>
      <point x="552" y="1675"/>
      <point x="644" y="1675" type="curve" smooth="yes"/>
      <point x="790" y="1675"/>
      <point x="852" y="1575"/>
      <point x="937" y="1575" type="curve" smooth="yes"/>
      <point x="1008" y="1575"/>
      <point x="1059" y="1612"/>
      <point x="1103" y="1646" type="curve"/>
      <point x="1192" y="1549" type="line"/>
      <point x="1147" y="1431"/>
      <point x="984" y="1338"/>
      <point x="891" y="1338" type="curve" smooth="yes"/>
      <point x="746" y="1338"/>
      <point x="677" y="1441"/>
      <point x="591" y="1441" type="curve" smooth="yes"/>
      <point x="532" y="1441"/>
      <point x="470" y="1403"/>
    </contour>
    <contour>
      <point x="97" y="0" type="line"/>
      <point x="97" y="136" type="line"/>
      <point x="222" y="161" type="line"/>
      <point x="222" y="819" type="line"/>
      <point x="86" y="915" type="line"/>
      <point x="86" y="1041" type="line"/>
      <point x="457" y="1151" type="line"/>
      <point x="532" y="1132" type="line"/>
      <point x="532" y="984" type="line"/>
      <point x="637" y="1085"/>
      <point x="798" y="1151"/>
      <point x="951" y="1151" type="curve" smooth="yes"/>
      <point x="1206" y="1150"/>
      <point x="1279" y="985"/>
      <point x="1279" y="700" type="curve" smooth="yes"/>
      <point x="1279" y="162" type="line"/>
      <point x="1420" y="136" type="line"/>
      <point x="1420" y="0" type="line"/>
      <point x="782" y="0" type="line"/>
      <point x="782" y="136" type="line"/>
      <point x="925" y="164" type="line"/>
      <point x="925" y="655" type="line" smooth="yes"/>
      <point x="925" y="869"/>
      <point x="895" y="920"/>
      <point x="728" y="920" type="curve" smooth="yes"/>
      <point x="703" y="920"/>
      <point x="609" y="902"/>
      <point x="576" y="874" type="curve"/>
      <point x="576" y="163" type="line"/>
      <point x="699" y="136" type="line"/>
      <point x="699" y="0" type="line"/>
    </contour>
  </outline>
</glyph>
<glyph name="otilde" format="1">
  <advance width="1335"/>
  <unicode hex="00F5"/>
  <outline>
    <contour>
      <point x="329" y="1369" type="curve"/>
      <point x="242" y="1467" type="line"/>
      <point x="286" y="1585"/>
      <point x="458" y="1675"/>
      <point x="550" y="1675" type="curve" smooth="yes"/>
      <point x="696" y="1675"/>
      <point x="758" y="1575"/>
      <point x="843" y="1575" type="curve" smooth="yes"/>
      <point x="914" y="1575"/>
      <point x="965" y="1612"/>
      <point x="1009" y="1646" type="curve"/>
      <point x="1098" y="1549" type="line"/>
      <point x="1053" y="1431"/>
      <point x="890" y="1338"/>
      <point x="797" y="1338" type="curve" smooth="yes"/>
      <point x="652" y="1338"/>
      <point x="583" y="1441"/>
      <point x="497" y="1441" type="curve" smooth="yes"/>
      <point x="438" y="1441"/>
      <point x="376" y="1403"/>
    </contour>
    <contour>
      <point x="74" y="561" type="curve" smooth="yes"/>
      <point x="79" y="971"/>
      <point x="371" y="1148"/>
      <point x="686" y="1152" type="curve" smooth="yes"/>
      <point x="1043" y="1156"/>
      <point x="1262" y="963"/>
      <point x="1262" y="591" type="curve" smooth="yes"/>
      <point x="1262" y="170"/>
      <point x="975" y="-23"/>
      <point x="658" y="-24" type="curve" smooth="yes"/>
      <point x="232" y="-25"/>
      <point x="70" y="240"/>
    </contour>
    <contour>
      <point x="669" y="122" type="curve" smooth="yes"/>
      <point x="855" y="122"/>
      <point x="886" y="363"/>
      <point x="886" y="574" type="curve" smooth="yes"/>
      <point x="886" y="764"/>
      <point x="856" y="1006"/>
      <point x="677" y="1006" type="curve" smooth="yes"/>
      <point x="491" y="1006"/>
      <point x="450" y="785"/>
      <point x="450" y="589" type="curve" smooth="yes"/>
      <point x="450" y="418"/>
      <point x="490" y="122"/>
    </contour>
  </outline>
</glyph>
<glyph name="divide" format="1">
  <advance width="1400"/>
  <unicode hex="00F7"/>
  <outline>
    <contour>
      <point x="713" y="1145" type="curve" smooth="yes"/>
      <point x="612" y="1145"/>
      <point x="515" y="1212"/>
      <point x="515" y="1331" type="curve" smooth="yes"/>
      <point x="515" y="1460"/>
      <point x="639" y="1553"/>
      <point x="748" y="1553" type="curve" smooth="yes"/>
      <point x="889" y="1553"/>
      <point x="949" y="1471"/>
      <point x="949" y="1364" type="curve" smooth="yes"/>
      <point x="949" y="1228"/>
      <point x="831" y="1145"/>
    </contour>
    <contour>
      <point x="183" y="722" type="line"/>
      <point x="183" y="958" type="line"/>
      <point x="1217" y="958" type="line"/>
      <point x="1217" y="722" type="line"/>
    </contour>
    <contour>
      <point x="514" y="313" type="curve" smooth="yes"/>
      <point x="514" y="442"/>
      <point x="638" y="535"/>
      <point x="747" y="535" type="curve" smooth="yes"/>
      <point x="888" y="535"/>
      <point x="948" y="453"/>
      <point x="948" y="346" type="curve" smooth="yes"/>
      <point x="948" y="210"/>
      <point x="830" y="127"/>
      <point x="712" y="127" type="curve" smooth="yes"/>
      <point x="611" y="127"/>
      <point x="514" y="194"/>
    </contour>
  </outline>
</glyph>
<glyph name="udieresis" format="1">
  <advance width="1331"/>
  <unicode hex="00FC"/>
  <outline>
    <contour>
      <point x="893" y="1349" type="curve" smooth="yes"/>
      <point x="800" y="1349"/>
      <point x="712" y="1399"/>
      <point x="712" y="1489" type="curve" smooth="yes"/>
      <point x="712" y="1582"/>
      <point x="818" y="1650"/>
      <point x="919" y="1650" type="curve" smooth="yes"/>
      <point x="1049" y="1650"/>
      <point x="1097" y="1590"/>
      <point x="1097" y="1512" type="curve" smooth="yes"/>
      <point x="1097" y="1412"/>
      <point x="1000" y="1349"/>
    </contour>
    <contour>
      <point x="365" y="1348" type="curve" smooth="yes"/>
      <point x="269" y="1348"/>
      <point x="188" y="1397"/>
      <point x="188" y="1486" type="curve" smooth="yes"/>
      <point x="188" y="1582"/>
      <point x="290" y="1650"/>
      <point x="393" y="1650" type="curve" smooth="yes"/>
      <point x="523" y="1650"/>
      <point x="577" y="1589"/>
      <point x="577" y="1510" type="curve" smooth="yes"/>
      <point x="577" y="1411"/>
      <point x="475" y="1348"/>
    </contour>
    <contour>
      <point x="147" y="391" type="curve" smooth="yes"/>
      <point x="147" y="868" type="line"/>
      <point x="53" y="938" type="line"/>
      <point x="53" y="1060" type="line"/>
      <point x="435" y="1151" type="line"/>
      <point x="488" y="1134" type="line"/>
      <point x="488" y="438" type="line" smooth="yes"/>
      <point x="488" y="258"/>
      <point x="517" y="167"/>
      <point x="641" y="167" type="curve" smooth="yes"/>
      <point x="708" y="167"/>
      <point x="786" y="188"/>
      <point x="819" y="220" type="curve"/>
      <point x="819" y="851" type="line"/>
      <point x="692" y="922" type="line"/>
      <point x="692" y="1060" type="line"/>
      <point x="1110" y="1151" type="line"/>
      <point x="1166" y="1134" type="line"/>
      <point x="1166" y="136" type="line"/>
      <point x="1280" y="136" type="line"/>
      <point x="1280" y="29" type="line"/>
      <point x="1236" y="-4"/>
      <point x="1106" y="-28"/>
      <point x="997" y="-28" type="curve" smooth="yes"/>
      <point x="918" y="-28"/>
      <point x="854" y="2"/>
      <point x="854" y="82" type="curve" smooth="yes"/>
      <point x="854" y="120" type="line"/>
      <point x="778" y="28"/>
      <point x="619" y="-28"/>
      <point x="524" y="-28" type="curve" smooth="yes"/>
      <point x="245" y="-28"/>
      <point x="147" y="98"/>
    </contour>
  </outline>
</glyph>
<glyph name="thorn" format="1">
  <advance width="1348"/>
  <unicode hex="00FE"/>
  <outline>
    <contour>
      <point x="170" y="60" type="curve" smooth="yes"/>
      <point x="170" y="1384" type="line"/>
      <point x="45" y="1441" type="line"/>
      <point x="45" y="1581" type="line"/>
      <point x="467" y="1629" type="line"/>
      <point x="524" y="1612" type="line"/>
      <point x="524" y="1088" type="line"/>
      <point x="589" y="1124"/>
      <point x="678" y="1151"/>
      <point x="787" y="1151" type="curve" smooth="yes"/>
      <point x="1034" y="1151"/>
      <point x="1275" y="1004"/>
      <point x="1275" y="605" type="curve" smooth="yes"/>
      <point x="1275" y="279"/>
      <point x="1027" y="-28"/>
      <point x="644" y="-28" type="curve" smooth="yes"/>
      <point x="599" y="-28"/>
      <point x="554" y="-25"/>
      <point x="509" y="-21" type="curve"/>
      <point x="524" y="-103" type="line"/>
      <point x="524" y="-343" type="line"/>
      <point x="738" y="-371" type="line"/>
      <point x="738" y="-511" type="line"/>
      <point x="15" y="-511" type="line"/>
      <point x="15" y="-371" type="line"/>
      <point x="171" y="-341" type="line"/>
      <point x="171" y="-207"/>
      <point x="170" y="-73"/>
    </contour>
    <contour>
      <point x="524" y="201" type="line"/>
      <point x="542" y="167"/>
      <point x="585" y="117"/>
      <point x="680" y="117" type="curve" smooth="yes"/>
      <point x="793" y="117"/>
      <point x="907" y="206"/>
      <point x="918" y="567" type="curve" smooth="yes"/>
      <point x="927" y="852"/>
      <point x="776" y="976"/>
      <point x="650" y="976" type="curve" smooth="yes"/>
      <point x="596" y="976"/>
      <point x="554" y="967"/>
      <point x="524" y="957" type="curve"/>
    </contour>
  </outline>
</glyph>
<glyph name="ydieresis" format="1">
  <advance width="1233"/>
  <unicode hex="00FF"/>
  <outline>
    <contour>
      <point x="918" y="1349" type="curve" smooth="yes"/>
      <point x="825" y="1349"/>
      <point x="737" y="1399"/>
      <point x="737" y="1489" type="curve" smooth="yes"/>
      <point x="737" y="1582"/>
      <point x="843" y="1650"/>
      <point x="944" y="1650" type="curve" smooth="yes"/>
      <point x="1074" y="1650"/>
      <point x="1122" y="1590"/>
      <point x="1122" y="1512" type="curve" smooth="yes"/>
      <point x="1122" y="1412"/>
      <point x="1025" y="1349"/>
    </contour>
    <contour>
      <point x="390" y="1348" type="curve" smooth="yes"/>
      <point x="294" y="1348"/>
      <point x="213" y="1397"/>
      <point x="213" y="1486" type="curve" smooth="yes"/>
      <point x="213" y="1582"/>
      <point x="315" y="1650"/>
      <point x="418" y="1650" type="curve" smooth="yes"/>
      <point x="548" y="1650"/>
      <point x="602" y="1589"/>
      <point x="602" y="1510" type="curve" smooth="yes"/>
      <point x="602" y="1411"/>
      <point x="500" y="1348"/>
    </contour>
    <contour>
      <point x="147" y="-261" type="line"/>
      <point x="181" y="-268"/>
      <point x="229" y="-279"/>
      <point x="295" y="-277" type="curve" smooth="yes"/>
      <point x="358" y="-275"/>
      <point x="483" y="-247"/>
      <point x="542" y="0" type="curve"/>
      <point x="486" y="0" type="line"/>
      <point x="92" y="914" type="line"/>
      <point x="5" y="940" type="line"/>
      <point x="5" y="1119" type="line"/>
      <point x="590" y="1119" type="line"/>
      <point x="590" y="940" type="line"/>
      <point x="476" y="915" type="line"/>
      <point x="673" y="381" type="line"/>
      <point x="689" y="278" type="line"/>
      <point x="718" y="381" type="line"/>
      <point x="881" y="917" type="line"/>
      <point x="744" y="940" type="line"/>
      <point x="744" y="1119" type="line"/>
      <point x="1252" y="1119" type="line"/>
      <point x="1252" y="940" type="line"/>
      <point x="1152" y="919" type="line"/>
      <point x="855" y="167"/>
      <point x="790" y="22"/>
      <point x="761" y="-56" type="curve" smooth="yes"/>
      <point x="644" y="-368"/>
      <point x="529" y="-542"/>
      <point x="306" y="-542" type="curve" smooth="yes"/>
      <point x="278" y="-542"/>
      <point x="245" y="-541"/>
      <point x="215" y="-539" type="curve" smooth="yes"/>
      <point x="185" y="-537"/>
      <point x="158" y="-533"/>
      <point x="145" y="-527" type="curve"/>
    </contour>
  </outline>
</glyph>
<glyph name="Aogonek" format="1">
  <advance width="1600"/>
  <unicode hex="0104"/>
  <outline>
    <contour>
      <point x="5" y="0" type="line"/>
      <point x="5" y="140" type="line"/>
      <point x="138" y="180" type="line"/>
      <point x="631" y="1553" type="line"/>
      <point x="964" y="1553" type="line"/>
      <point x="1443" y="178" type="line"/>
      <point x="1595" y="138" type="line"/>
      <point x="1595" y="0" type="line"/>
      <point x="1357" y="0" type="line"/>
      <point x="1207" y="-51"/>
      <point x="1089" y="-143"/>
      <point x="1071" y="-195" type="curve" smooth="yes"/>
      <point x="1039" y="-286"/>
      <point x="1091" y="-297"/>
      <point x="1135" y="-298" type="curve" smooth="yes"/>
      <point x="1213" y="-301"/>
      <point x="1301" y="-271"/>
      <point x="1373" y="-244" type="curve"/>
      <point x="1408" y="-378" type="line"/>
      <point x="1277" y="-472"/>
      <point x="1127" y="-514"/>
      <point x="954" y="-514" type="curve" smooth="yes"/>
      <point x="800" y="-514"/>
      <point x="746" y="-427"/>
      <point x="741" y="-351" type="curve" smooth="yes"/>
      <point x="736" y="-256"/>
      <point x="871" y="-85"/>
      <point x="1113" y="0" type="curve"/>
      <point x="911" y="0" type="line"/>
      <point x="911" y="138" type="line"/>
      <point x="1045" y="183" type="line"/>
      <point x="1002" y="335" type="line"/>
      <point x="461" y="335" type="line"/>
      <point x="416" y="187" type="line"/>
      <point x="565" y="140" type="line"/>
      <point x="565" y="0" type="line"/>
    </contour>
    <contour>
      <point x="518" y="521" type="line"/>
      <point x="948" y="521" type="line"/>
      <point x="815" y="979" type="line"/>
      <point x="742" y="1253" type="line"/>
    </contour>
  </outline>
</glyph>
<glyph name="Eogonek" format="1">
  <advance width="1426"/>
  <unicode hex="0118"/>
  <outline>
    <contour>
      <point x="101" y="0" type="line"/>
      <point x="101" y="140" type="line"/>
      <point x="248" y="179" type="line"/>
      <point x="248" y="1367" type="line"/>
      <point x="106" y="1389" type="line"/>
      <point x="106" y="1553" type="line"/>
      <point x="1241" y="1553" type="line"/>
      <point x="1272" y="1211" type="line"/>
      <point x="1067" y="1211" type="line"/>
      <point x="973" y="1371" type="line"/>
      <point x="603" y="1392" type="line"/>
      <point x="603" y="873" type="line"/>
      <point x="859" y="883" type="line"/>
      <point x="913" y="1032" type="line"/>
      <point x="1094" y="1032" type="line"/>
      <point x="1094" y="544" type="line"/>
      <point x="913" y="544" type="line"/>
      <point x="859" y="703" type="line"/>
      <point x="603" y="709" type="line"/>
      <point x="603" y="160" type="line"/>
      <point x="1042" y="188" type="line"/>
      <point x="1169" y="386" type="line"/>
      <point x="1377" y="349" type="line"/>
      <point x="1323" y="0" type="line"/>
      <point x="1283" y="0" type="line"/>
      <point x="1133" y="-51"/>
      <point x="1015" y="-143"/>
      <point x="997" y="-195" type="curve" smooth="yes"/>
      <point x="965" y="-286"/>
      <point x="1017" y="-297"/>
      <point x="1061" y="-298" type="curve" smooth="yes"/>
      <point x="1139" y="-301"/>
      <point x="1227" y="-271"/>
      <point x="1299" y="-244" type="curve"/>
      <point x="1334" y="-378" type="line"/>
      <point x="1203" y="-472"/>
      <point x="1053" y="-514"/>
      <point x="880" y="-514" type="curve" smooth="yes"/>
      <point x="726" y="-514"/>
      <point x="672" y="-427"/>
      <point x="667" y="-351" type="curve" smooth="yes"/>
      <point x="662" y="-256"/>
      <point x="797" y="-85"/>
      <point x="1039" y="0" type="curve"/>
    </contour>
  </outline>
</glyph>
<glyph name="hbar" format="1">
  <advance width="1425"/>
  <unicode hex="0127"/>
  <outline>
    <contour>
      <point x="60" y="0" type="line"/>
      <point x="60" y="136" type="line"/>
      <point x="203" y="164" type="line"/>
      <point x="203" y="1167" type="line"/>
      <point x="44" y="1167" type="line"/>
      <point x="44" y="1294" type="line"/>
      <point x="203" y="1294" type="line"/>
      <point x="203" y="1384" type="line"/>
      <point x="68" y="1441" type="line"/>
      <point x="68" y="1581" type="line"/>
      <point x="499" y="1630" type="line"/>
      <point x="557" y="1612" type="line"/>
      <point x="557" y="1294" type="line"/>
      <point x="740" y="1294" type="line"/>
      <point x="740" y="1167" type="line"/>
      <point x="557" y="1167" type="line"/>
      <point x="557" y="1120" type="line"/>
      <point x="536" y="1017" type="line"/>
      <point x="658" y="1128"/>
      <point x="804" y="1151"/>
      <point x="907" y="1151" type="curve" smooth="yes"/>
      <point x="1194" y="1151"/>
      <point x="1244" y="950"/>
      <point x="1240" y="627" type="curve"/>
      <point x="1240" y="163" type="line"/>
      <point x="1376" y="136" type="line"/>
      <point x="1376" y="0" type="line"/>
      <point x="741" y="2" type="line"/>
      <point x="741" y="136" type="line"/>
      <point x="886" y="164" type="line"/>
      <point x="886" y="578" type="line" smooth="yes"/>
      <point x="886" y="784"/>
      <point x="877" y="932"/>
      <point x="701" y="932" type="curve" smooth="yes"/>
      <point x="645" y="932"/>
      <point x="597" y="919"/>
      <point x="557" y="886" type="curve"/>
      <point x="557" y="162" type="line"/>
      <point x="655" y="136" type="line"/>
      <point x="655" y="0" type="line"/>
    </contour>
  </outline>
</glyph>
<glyph name="dotlessi" format="1">
  <advance width="748"/>
  <unicode hex="0131"/>
  <outline>
    <contour>
      <point x="79" y="0" type="line"/>
      <point x="79" y="136" type="line"/>
      <point x="214" y="164" type="line"/>
      <point x="214" y="786" type="line"/>
      <point x="86" y="930" type="line"/>
      <point x="86" y="1023" type="line"/>
      <point x="482" y="1157" type="line"/>
      <point x="567" y="1132" type="line"/>
      <point x="567" y="162" type="line"/>
      <point x="708" y="136" type="line"/>
      <point x="708" y="0" type="line"/>
    </contour>
  </outline>
</glyph>
<glyph name="IJ" format="1">
  <advance width="1635"/>
  <unicode hex="0132"/>
  <outline>
    <contour>
      <point x="736" y="-295" type="line"/>
      <point x="867" y="-244"/>
      <point x="975" y="-175"/>
      <point x="1030" y="-47" type="curve"/>
      <point x="1072" y="70"/>
      <point x="1080" y="202"/>
      <point x="1080" y="406" type="curve" smooth="yes"/>
      <point x="1080" y="1367" type="line"/>
      <point x="932" y="1389" type="line"/>
      <point x="932" y="1553" type="line"/>
      <point x="1584" y="1553" type="line"/>
      <point x="1584" y="1389" type="line"/>
      <point x="1441" y="1366" type="line"/>
      <point x="1441" y="534" type="line" smooth="yes"/>
      <point x="1441" y="297"/>
      <point x="1422" y="54"/>
      <point x="1381" y="-41" type="curve" smooth="yes"/>
      <point x="1277" y="-280"/>
      <point x="986" y="-391"/>
      <point x="806" y="-396" type="curve"/>
    </contour>
    <contour>
      <point x="55" y="0" type="line"/>
      <point x="55" y="140" type="line"/>
      <point x="243" y="181" type="line"/>
      <point x="243" y="1365" type="line"/>
      <point x="55" y="1389" type="line"/>
      <point x="55" y="1553" type="line"/>
      <point x="782" y="1553" type="line"/>
      <point x="782" y="1389" type="line"/>
      <point x="604" y="1364" type="line"/>
      <point x="604" y="183" type="line"/>
      <point x="793" y="140" type="line"/>
      <point x="793" y="0" type="line"/>
    </contour>
  </outline>
</glyph>
<glyph name="Jcircumflex" format="1">
  <advance width="785"/>
  <unicode hex="0134"/>
  <outline>
    <contour>
      <point x="128" y="1597" type="line"/>
      <point x="17" y="1670" type="line"/>
      <point x="292" y="1920" type="line"/>
      <point x="524" y="1920" type="line"/>
      <point x="794" y="1670" type="line"/>
      <point x="682" y="1597" type="line"/>
      <point x="410" y="1726" type="line"/>
    </contour>
    <contour>
      <point x="177" y="-47" type="curve"/>
      <point x="219" y="70"/>
      <point x="227" y="202"/>
      <point x="227" y="406" type="curve" smooth="yes"/>
      <point x="227" y="1367" type="line"/>
      <point x="79" y="1389" type="line"/>
      <point x="79" y="1553" type="line"/>
      <point x="731" y="1553" type="line"/>
      <point x="731" y="1389" type="line"/>
      <point x="588" y="1366" type="line"/>
      <point x="588" y="534" type="line" smooth="yes"/>
      <point x="588" y="297"/>
      <point x="569" y="54"/>
      <point x="528" y="-41" type="curve" smooth="yes"/>
      <point x="424" y="-280"/>
      <point x="133" y="-391"/>
      <point x="-47" y="-396" type="curve"/>
      <point x="-117" y="-295" type="line"/>
      <point x="14" y="-244"/>
      <point x="122" y="-175"/>
    </contour>
  </outline>
</glyph>
<glyph name="jcircumflex" format="1">
  <advance width="684"/>
  <unicode hex="0135"/>
  <outline>
    <contour>
      <point x="96" y="1394" type="line"/>
      <point x="-35" y="1468" type="line"/>
      <point x="236" y="1834" type="line"/>
      <point x="489" y="1834" type="line"/>
      <point x="766" y="1469" type="line"/>
      <point x="621" y="1395" type="line"/>
      <point x="362" y="1601" type="line"/>
    </contour>
    <contour>
      <point x="192" y="-2" type="curve" smooth="yes"/>
      <point x="192" y="786" type="line"/>
      <point x="82" y="933" type="line"/>
      <point x="82" y="1021" type="line"/>
      <point x="465" y="1151" type="line"/>
      <point x="546" y="1124" type="line"/>
      <point x="546" y="-16" type="line" smooth="yes"/>
      <point x="546" y="-328"/>
      <point x="387" y="-515"/>
      <point x="151" y="-515" type="curve" smooth="yes"/>
      <point x="123" y="-515"/>
      <point x="-29" y="-509"/>
      <point x="-40" y="-500" type="curve"/>
      <point x="-40" y="-274" type="line"/>
      <point x="-17" y="-281"/>
      <point x="71" y="-285"/>
      <point x="96" y="-285" type="curve" smooth="yes"/>
      <point x="184" y="-285"/>
      <point x="192" y="-204"/>
    </contour>
  </outline>
</glyph>
<glyph name="Kcommaaccent" format="1">
  <advance width="1530"/>
  <unicode hex="0136"/>
  <outline>
    <contour>
      <point x="46" y="0" type="line"/>
      <point x="46" y="140" type="line"/>
      <point x="235" y="183" type="line"/>
      <point x="235" y="1364" type="line"/>
      <point x="43" y="1389" type="line"/>
      <point x="43" y="1553" type="line"/>
      <point x="767" y="1553" type="line"/>
      <point x="767" y="1389" type="line"/>
      <point x="589" y="1364" type="line"/>
      <point x="589" y="797" type="line"/>
      <point x="1049" y="1366" type="line"/>
      <point x="890" y="1389" type="line"/>
      <point x="887" y="1553" type="line"/>
      <point x="1506" y="1553" type="line"/>
      <point x="1506" y="1389" type="line"/>
      <point x="1319" y="1363" type="line"/>
      <point x="888" y="889" type="line"/>
      <point x="1064" y="735"/>
      <point x="1300" y="238"/>
      <point x="1415" y="177" type="curve"/>
      <point x="1545" y="140" type="line"/>
      <point x="1545" y="0" type="line"/>
      <point x="1122" y="0" type="line" smooth="yes"/>
      <point x="1004" y="0"/>
      <point x="855" y="562"/>
      <point x="703" y="684" type="curve"/>
      <point x="589" y="558" type="line"/>
      <point x="589" y="182" type="line"/>
      <point x="790" y="140" type="line"/>
      <point x="790" y="0" type="line"/>
    </contour>
    <contour>
      <point x="589" y="-203" type="line"/>
      <point x="737" y="-40" type="line"/>
      <point x="877" y="-40"/>
      <point x="1000" y="-145"/>
      <point x="1000" y="-321" type="curve" smooth="yes"/>
      <point x="1000" y="-493"/>
      <point x="827" y="-616"/>
      <point x="746" y="-640" type="curve"/>
      <point x="618" y="-589" type="line"/>
      <point x="618" y="-568" type="line"/>
      <point x="649" y="-534"/>
      <point x="714" y="-497"/>
      <point x="714" y="-414" type="curve" smooth="yes"/>
      <point x="714" y="-343"/>
      <point x="657" y="-280"/>
      <point x="589" y="-280" type="curve"/>
    </contour>
  </outline>
</glyph>
<glyph name="kcommaaccent" format="1">
  <advance width="1358"/>
  <unicode hex="0137"/>
  <outline>
    <contour>
      <point x="69" y="0" type="line"/>
      <point x="69" y="136" type="line"/>
      <point x="203" y="166" type="line"/>
      <point x="203" y="1352" type="line"/>
      <point x="42" y="1423" type="line"/>
      <point x="42" y="1565" type="line"/>
      <point x="496" y="1631" type="line"/>
      <point x="557" y="1603" type="line"/>
      <point x="557" y="711" type="line"/>
      <point x="544" y="570" type="line"/>
      <point x="870" y="919" type="line"/>
      <point x="687" y="940" type="line"/>
      <point x="687" y="1119" type="line"/>
      <point x="1325" y="1119" type="line"/>
      <point x="1325" y="940" type="line"/>
      <point x="1123" y="921" type="line"/>
      <point x="881" y="691" type="line"/>
      <point x="1222" y="158" type="line"/>
      <point x="1325" y="138" type="line"/>
      <point x="1325" y="0" type="line"/>
      <point x="734" y="0" type="line"/>
      <point x="734" y="138" type="line"/>
      <point x="817" y="165" type="line"/>
      <point x="649" y="480" type="line"/>
      <point x="547" y="363" type="line"/>
      <point x="556" y="280" type="line"/>
      <point x="556" y="162" type="line"/>
      <point x="673" y="136" type="line"/>
      <point x="673" y="0" type="line"/>
    </contour>
    <contour>
      <point x="473" y="-203" type="line"/>
      <point x="621" y="-40" type="line"/>
      <point x="761" y="-40"/>
      <point x="884" y="-145"/>
      <point x="884" y="-321" type="curve" smooth="yes"/>
      <point x="884" y="-493"/>
      <point x="711" y="-616"/>
      <point x="630" y="-640" type="curve"/>
      <point x="502" y="-589" type="line"/>
      <point x="502" y="-568" type="line"/>
      <point x="533" y="-534"/>
      <point x="598" y="-497"/>
      <point x="598" y="-414" type="curve" smooth="yes"/>
      <point x="598" y="-343"/>
      <point x="541" y="-280"/>
      <point x="473" y="-280" type="curve"/>
    </contour>
  </outline>
</glyph>
<glyph name="ldot" format="1">
  <advance width="1145"/>
  <unicode hex="0140"/>
  <outline>
    <contour>
      <point x="67" y="0" type="line"/>
      <point x="67" y="136" type="line"/>
      <point x="185" y="161" type="line"/>
      <point x="185" y="1384" type="line"/>
      <point x="50" y="1441" type="line"/>
      <point x="50" y="1581" type="line"/>
      <point x="481" y="1630" type="line"/>
      <point x="539" y="1612" type="line"/>
      <point x="539" y="166" type="line"/>
      <point x="714" y="136" type="line"/>
      <point x="714" y="0" type="line"/>
    </contour>
    <contour>
      <point x="702" y="789" type="curve" smooth="yes"/>
      <point x="702" y="918"/>
      <point x="831" y="1016"/>
      <point x="940" y="1016" type="curve" smooth="yes"/>
      <point x="1081" y="1016"/>
      <point x="1147" y="929"/>
      <point x="1147" y="822" type="curve" smooth="yes"/>
      <point x="1147" y="686"/>
      <point x="1023" y="603"/>
      <point x="905" y="603" type="curve" smooth="yes"/>
      <point x="804" y="603"/>
      <point x="702" y="670"/>
    </contour>
  </outline>
</glyph>
<glyph name="lslash" format="1">
  <advance width="735"/>
  <unicode hex="0142"/>
  <outline>
    <contour>
      <point x="70" y="0" type="line"/>
      <point x="70" y="136" type="line"/>
      <point x="188" y="161" type="line"/>
      <point x="188" y="646" type="line"/>
      <point x="72" y="606" type="line"/>
      <point x="72" y="854" type="line"/>
      <point x="188" y="896" type="line"/>
      <point x="188" y="1384" type="line"/>
      <point x="53" y="1441" type="line"/>
      <point x="53" y="1581" type="line"/>
      <point x="484" y="1630" type="line"/>
      <point x="542" y="1612" type="line"/>
      <point x="542" y="1027" type="line"/>
      <point x="737" y="1099" type="line"/>
      <point x="737" y="835" type="line"/>
      <point x="542" y="768" type="line"/>
      <point x="542" y="166" type="line"/>
      <point x="717" y="136" type="line"/>
      <point x="717" y="0" type="line"/>
    </contour>
  </outline>
</glyph>
<glyph name="Nacute" format="1">
  <advance width="1686"/>
  <unicode hex="0143"/>
  <outline>
    <contour>
      <point x="814" y="1593" type="curve"/>
      <point x="713" y="1700" type="line"/>
      <point x="1106" y="1920" type="line"/>
      <point x="1299" y="1728" type="line"/>
      <point x="1186" y="1643"/>
      <point x="859" y="1590"/>
    </contour>
    <contour>
      <point x="63" y="0" type="line"/>
      <point x="63" y="140" type="line"/>
      <point x="220" y="185" type="line"/>
      <point x="220" y="1346" type="line"/>
      <point x="70" y="1368" type="line"/>
      <point x="70" y="1553" type="line"/>
      <point x="579" y="1553" type="line"/>
      <point x="1181" y="505" type="line"/>
      <point x="1269" y="269" type="line"/>
      <point x="1269" y="1342" type="line"/>
      <point x="1089" y="1370" type="line"/>
      <point x="1089" y="1553" type="line"/>
      <point x="1633" y="1553" type="line"/>
      <point x="1633" y="1370" type="line"/>
      <point x="1496" y="1348" type="line"/>
      <point x="1496" y="0" type="line"/>
      <point x="1104" y="0" type="line"/>
      <point x="559" y="917" type="line"/>
      <point x="450" y="1187" type="line"/>
      <point x="450" y="855"/>
      <point x="451" y="517"/>
      <point x="451" y="189" type="curve"/>
      <point x="654" y="140" type="line"/>
      <point x="654" y="0" type="line"/>
    </contour>
  </outline>
</glyph>
<glyph name="rcommaaccent" format="1">
  <advance width="966"/>
  <unicode hex="0157"/>
  <outline>
    <contour>
      <point x="98" y="0" type="line"/>
      <point x="98" y="136" type="line"/>
      <point x="221" y="161" type="line"/>
      <point x="221" y="819" type="line"/>
      <point x="85" y="915" type="line"/>
      <point x="85" y="1041" type="line"/>
      <point x="456" y="1151" type="line"/>
      <point x="528" y="1133" type="line"/>
      <point x="528" y="937" type="line"/>
      <point x="562" y="1071"/>
      <point x="733" y="1151"/>
      <point x="816" y="1151" type="curve" smooth="yes"/>
      <point x="863" y="1151"/>
      <point x="907" y="1147"/>
      <point x="924" y="1139" type="curve"/>
      <point x="924" y="823" type="line"/>
      <point x="891" y="854"/>
      <point x="799" y="871"/>
      <point x="753" y="871" type="curve" smooth="yes"/>
      <point x="640" y="871"/>
      <point x="586" y="840"/>
      <point x="575" y="833" type="curve"/>
      <point x="575" y="170" type="line"/>
      <point x="808" y="136" type="line"/>
      <point x="808" y="0" type="line"/>
    </contour>
    <contour>
      <point x="231" y="-203" type="line"/>
      <point x="379" y="-40" type="line"/>
      <point x="519" y="-40"/>
      <point x="642" y="-145"/>
      <point x="642" y="-321" type="curve" smooth="yes"/>
      <point x="642" y="-493"/>
      <point x="469" y="-616"/>
      <point x="388" y="-640" type="curve"/>
      <point x="260" y="-589" type="line"/>
      <point x="260" y="-568" type="line"/>
      <point x="291" y="-534"/>
      <point x="356" y="-497"/>
      <point x="356" y="-414" type="curve" smooth="yes"/>
      <point x="356" y="-343"/>
      <point x="299" y="-280"/>
      <point x="231" y="-280" type="curve"/>
    </contour>
  </outline>
</glyph>
<glyph name="rcaron" format="1">
  <advance width="966"/>
  <unicode hex="0159"/>
  <outline>
    <contour>
      <point x="269" y="1335" type="line"/>
      <point x="-2" y="1701" type="line"/>
      <point x="129" y="1775" type="line"/>
      <point x="395" y="1568" type="line"/>
      <point x="654" y="1774" type="line"/>
      <point x="799" y="1700" type="line"/>
      <point x="522" y="1335" type="line"/>
    </contour>
    <contour>
      <point x="98" y="0" type="line"/>
      <point x="98" y="136" type="line"/>
      <point x="221" y="161" type="line"/>
      <point x="221" y="819" type="line"/>
      <point x="85" y="915" type="line"/>
      <point x="85" y="1041" type="line"/>
      <point x="456" y="1151" type="line"/>
      <point x="528" y="1133" type="line"/>
      <point x="528" y="937" type="line"/>
      <point x="562" y="1071"/>
      <point x="733" y="1151"/>
      <point x="816" y="1151" type="curve" smooth="yes"/>
      <point x="863" y="1151"/>
      <point x="907" y="1147"/>
      <point x="924" y="1139" type="curve"/>
      <point x="924" y="823" type="line"/>
      <point x="891" y="854"/>
      <point x="799" y="871"/>
      <point x="753" y="871" type="curve" smooth="yes"/>
      <point x="640" y="871"/>
      <point x="586" y="840"/>
      <point x="575" y="833" type="curve"/>
      <point x="575" y="170" type="line"/>
      <point x="808" y="136" type="line"/>
      <point x="808" y="0" type="line"/>
    </contour>
  </outline>
</glyph>
<glyph name="zdotaccent" format="1">
  <advance width="1151"/>
  <unicode hex="017C"/>
  <outline>
    <contour>
      <point x="572" y="1328" type="curve" smooth="yes"/>
      <point x="476" y="1328"/>
      <point x="395" y="1377"/>
      <point x="395" y="1466" type="curve" smooth="yes"/>
      <point x="395" y="1562"/>
      <point x="497" y="1630"/>
      <point x="600" y="1630" type="curve" smooth="yes"/>
      <point x="730" y="1630"/>
      <point x="784" y="1569"/>
      <point x="784" y="1490" type="curve" smooth="yes"/>
      <point x="784" y="1391"/>
      <point x="682" y="1328"/>
    </contour>
    <contour>
      <point x="98" y="0" type="line"/>
      <point x="52" y="100" type="line"/>
      <point x="167" y="284" type="line"/>
      <point x="604" y="878" type="line"/>
      <point x="689" y="968" type="line"/>
      <point x="344" y="948" type="line"/>
      <point x="278" y="746" type="line"/>
      <point x="96" y="746" type="line"/>
      <point x="96" y="1119" type="line"/>
      <point x="1053" y="1119" type="line"/>
      <point x="1104" y="995" type="line"/>
      <point x="628" y="303" type="line"/>
      <point x="505" y="151" type="line"/>
      <point x="868" y="186" type="line"/>
      <point x="928" y="358" type="line"/>
      <point x="1113" y="358" type="line"/>
      <point x="1097" y="0" type="line"/>
    </contour>
  </outline>
</glyph>
<glyph name="zcaron" format="1">
  <advance width="1151"/>
  <unicode hex="017E"/>
  <outline>
    <contour>
      <point x="464" y="1335" type="line"/>
      <point x="193" y="1701" type="line"/>
      <point x="324" y="1775" type="line"/>
      <point x="590" y="1568" type="line"/>
      <point x="849" y="1774" type="line"/>
      <point x="994" y="1700" type="line"/>
      <point x="717" y="1335" type="line"/>
    </contour>
    <contour>
      <point x="98" y="0" type="line"/>
      <point x="52" y="100" type="line"/>
      <point x="167" y="284" type="line"/>
      <point x="604" y="878" type="line"/>
      <point x="689" y="968" type="line"/>
      <point x="344" y="948" type="line"/>
      <point x="278" y="746" type="line"/>
      <point x="96" y="746" type="line"/>
      <point x="96" y="1119" type="line"/>
      <point x="1053" y="1119" type="line"/>
      <point x="1104" y="995" type="line"/>
      <point x="628" y="303" type="line"/>
      <point x="505" y="151" type="line"/>
      <point x="868" y="186" type="line"/>
      <point x="928" y="358" type="line"/>
      <point x="1113" y="358" type="line"/>
      <point x="1097" y="0" type="line"/>
    </contour>
  </outline>
</glyph>
<glyph name="florin" format="1">
  <advance width="986"/>
  <unicode hex="0192"/>
  <outline>
    <contour>
      <point x="188" y="-354" type="line"/>
      <point x="286" y="913" type="line"/>
      <point x="103" y="913" type="line"/>
      <point x="111" y="1018" type="line"/>
      <point x="300" y="1097" type="line"/>
      <point x="309" y="1202" type="line"/>
      <point x="327" y="1436"/>
      <point x="530" y="1734"/>
      <point x="827" y="1734" type="curve" smooth="yes"/>
      <point x="890" y="1734"/>
      <point x="976" y="1723"/>
      <point x="1020" y="1702" type="curve"/>
      <point x="999" y="1442" type="line"/>
      <point x="981" y="1450"/>
      <point x="882" y="1497"/>
      <point x="800" y="1497" type="curve" smooth="yes"/>
      <point x="712" y="1497"/>
      <point x="662" y="1484"/>
      <point x="648" y="1308" type="curve" smooth="yes"/>
      <point x="633" y="1119" type="line"/>
      <point x="897" y="1119" type="line"/>
      <point x="896" y="913" type="line"/>
      <point x="617" y="913" type="line"/>
      <point x="519" y="-354" type="line"/>
    </contour>
  </outline>
</glyph>
<glyph name="breve" format="1">
  <advance width="1436"/>
  <unicode hex="02D8"/>
  <outline>
    <contour>
      <point x="718" y="1344" type="curve" smooth="yes"/>
      <point x="468" y="1344"/>
      <point x="344" y="1530"/>
      <point x="344" y="1693" type="curve"/>
      <point x="555" y="1693" type="line"/>
      <point x="562" y="1661"/>
      <point x="590" y="1545"/>
      <point x="719" y="1545" type="curve" smooth="yes"/>
      <point x="843" y="1545"/>
      <point x="876" y="1661"/>
      <point x="885" y="1694" type="curve"/>
      <point x="1092" y="1694" type="line"/>
      <point x="1092" y="1531"/>
      <point x="957" y="1344"/>
    </contour>
  </outline>
</glyph>
<glyph name="dotaccent" format="1">
  <advance width="709"/>
  <unicode hex="02D9"/>
  <outline>
    <contour>
      <point x="337" y="1328" type="curve" smooth="yes"/>
      <point x="241" y="1328"/>
      <point x="160" y="1377"/>
      <point x="160" y="1466" type="curve" smooth="yes"/>
      <point x="160" y="1562"/>
      <point x="262" y="1630"/>
      <point x="365" y="1630" type="curve" smooth="yes"/>
      <point x="495" y="1630"/>
      <point x="549" y="1569"/>
      <point x="549" y="1490" type="curve" smooth="yes"/>
      <point x="549" y="1391"/>
      <point x="447" y="1328"/>
    </contour>
  </outline>
</glyph>
<glyph name="ogonek" format="1">
  <advance width="769"/>
  <unicode hex="02DB"/>
  <outline>
    <contour>
      <point x="154" y="0" type="curve"/>
      <point x="272" y="10" type="line"/>
      <point x="398" y="0" type="line"/>
      <point x="248" y="-51"/>
      <point x="130" y="-143"/>
      <point x="112" y="-195" type="curve" smooth="yes"/>
      <point x="80" y="-286"/>
      <point x="132" y="-297"/>
      <point x="176" y="-298" type="curve" smooth="yes"/>
      <point x="254" y="-301"/>
      <point x="342" y="-271"/>
      <point x="414" y="-244" type="curve"/>
      <point x="449" y="-378" type="line"/>
      <point x="318" y="-472"/>
      <point x="168" y="-514"/>
      <point x="-5" y="-514" type="curve" smooth="yes"/>
      <point x="-159" y="-514"/>
      <point x="-213" y="-427"/>
      <point x="-218" y="-351" type="curve" smooth="yes"/>
      <point x="-223" y="-256"/>
      <point x="-88" y="-85"/>
    </contour>
  </outline>
</glyph>
<glyph name="hungarumlaut" format="1">
  <advance width="975"/>
  <unicode hex="02DD"/>
  <outline>
    <contour>
      <point x="692" y="1322" type="curve"/>
      <point x="556" y="1421" type="line"/>
      <point x="841" y="1837" type="line"/>
      <point x="1072" y="1672" type="line"/>
      <point x="996" y="1572"/>
      <point x="815" y="1364"/>
    </contour>
    <contour>
      <point x="125" y="1322" type="curve"/>
      <point x="-18" y="1421" type="line"/>
      <point x="272" y="1837" type="line"/>
      <point x="494" y="1672" type="line"/>
      <point x="424" y="1571"/>
      <point x="247" y="1378"/>
    </contour>
  </outline>
</glyph>
<glyph name="Delta" format="1">
  <advance width="1952"/>
  <unicode hex="0394"/>
  <unicode hex="2206"/>
  <outline>
    <contour>
      <point x="209" y="22" type="line"/>
      <point x="957" y="1553" type="line"/>
      <point x="989" y="1553" type="line"/>
      <point x="1742" y="27" type="line"/>
      <point x="1726" y="1" type="line"/>
      <point x="223" y="1" type="line"/>
    </contour>
    <contour>
      <point x="516" y="174" type="line"/>
      <point x="1371" y="174" type="line"/>
      <point x="936" y="1040" type="line"/>
    </contour>
  </outline>
</glyph>
<glyph name="Omega" format="1">
  <advance width="2132"/>
  <unicode hex="03A9"/>
  <unicode hex="2126"/>
  <outline>
    <contour>
      <point x="157" y="0" type="line"/>
      <point x="157" y="534" type="line"/>
      <point x="323" y="541" type="line"/>
      <point x="367" y="290" type="line"/>
      <point x="718" y="290" type="line"/>
      <point x="508" y="403"/>
      <point x="290" y="692"/>
      <point x="296" y="924" type="curve" smooth="yes"/>
      <point x="308" y="1378"/>
      <point x="687" y="1567"/>
      <point x="1068" y="1567" type="curve" smooth="yes"/>
      <point x="1504" y="1567"/>
      <point x="1815" y="1337"/>
      <point x="1804" y="940" type="curve" smooth="yes"/>
      <point x="1798" y="729"/>
      <point x="1583" y="447"/>
      <point x="1399" y="290" type="curve"/>
      <point x="1720" y="290" type="line"/>
      <point x="1820" y="548" type="line"/>
      <point x="1963" y="541" type="line"/>
      <point x="1900" y="0" type="line"/>
      <point x="1214" y="0" type="line"/>
      <point x="1215" y="240" type="line"/>
      <point x="1323" y="333"/>
      <point x="1432" y="685"/>
      <point x="1432" y="989" type="curve" smooth="yes"/>
      <point x="1432" y="1250"/>
      <point x="1302" y="1415"/>
      <point x="1059" y="1415" type="curve" smooth="yes"/>
      <point x="834" y="1415"/>
      <point x="669" y="1313"/>
      <point x="669" y="955" type="curve" smooth="yes"/>
      <point x="669" y="689"/>
      <point x="809" y="370"/>
      <point x="922" y="240" type="curve"/>
      <point x="923" y="0" type="line"/>
      <point x="895" y="77" type="line"/>
      <point x="922" y="0" type="line"/>
    </contour>
  </outline>
</glyph>
<glyph name="endash" format="1">
  <advance width="1510"/>
  <unicode hex="2013"/>
  <outline>
    <contour>
      <point x="183" y="722" type="line"/>
      <point x="183" y="958" type="line"/>
      <point x="1327" y="958" type="line"/>
      <point x="1327" y="722" type="line"/>
    </contour>
  </outline>
</glyph>
<glyph name="quoteleft" format="1">
  <advance width="922"/>
  <unicode hex="2018"/>
  <outline>
    <contour>
      <point x="460" y="760" type="line"/>
      <point x="255" y="831"/>
      <point x="191" y="1058"/>
      <point x="194" y="1192" type="curve" smooth="yes"/>
      <point x="202" y="1502"/>
      <point x="441" y="1704"/>
      <point x="626" y="1771" type="curve"/>
      <point x="729" y="1678" type="line"/>
      <point x="729" y="1635" type="line"/>
      <point x="648" y="1603"/>
      <point x="534" y="1452"/>
      <point x="534" y="1324" type="curve" smooth="yes"/>
      <point x="534" y="1233"/>
      <point x="610" y="1134"/>
      <point x="692" y="1126" type="curve"/>
      <point x="692" y="1048" type="line"/>
    </contour>
  </outline>
</glyph>
<glyph name="quoteright" format="1">
  <advance width="922"/>
  <unicode hex="2019"/>
  <outline>
    <contour>
      <point x="297" y="763" type="curve"/>
      <point x="193" y="855" type="line"/>
      <point x="193" y="898" type="line"/>
      <point x="275" y="929"/>
      <point x="389" y="1081"/>
      <point x="389" y="1209" type="curve" smooth="yes"/>
      <point x="389" y="1300"/>
      <point x="311" y="1399"/>
      <point x="229" y="1407" type="curve"/>
      <point x="229" y="1484" type="line"/>
      <point x="461" y="1773" type="line"/>
      <point x="666" y="1701"/>
      <point x="731" y="1475"/>
      <point x="728" y="1342" type="curve" smooth="yes"/>
      <point x="720" y="1032"/>
      <point x="479" y="829"/>
    </contour>
  </outline>
</glyph>
<glyph name="quotedblright" format="1">
  <advance width="1538"/>
  <unicode hex="201D"/>
  <outline>
    <contour>
      <point x="806" y="851" type="line"/>
      <point x="806" y="894" type="line"/>
      <point x="891" y="925"/>
      <point x="1003" y="1077"/>
      <point x="1003" y="1205" type="curve" smooth="yes"/>
      <point x="1003" y="1296"/>
      <point x="927" y="1395"/>
      <point x="845" y="1403" type="curve"/>
      <point x="845" y="1480" type="line"/>
      <point x="1076" y="1769" type="line"/>
      <point x="1283" y="1697"/>
      <point x="1347" y="1471"/>
      <point x="1344" y="1338" type="curve" smooth="yes"/>
      <point x="1337" y="1028"/>
      <point x="1094" y="825"/>
      <point x="913" y="759" type="curve"/>
    </contour>
    <contour>
      <point x="299" y="759" type="curve"/>
      <point x="193" y="851" type="line"/>
      <point x="193" y="894" type="line"/>
      <point x="276" y="925"/>
      <point x="390" y="1077"/>
      <point x="390" y="1205" type="curve" smooth="yes"/>
      <point x="390" y="1296"/>
      <point x="312" y="1395"/>
      <point x="230" y="1403" type="curve"/>
      <point x="230" y="1480" type="line"/>
      <point x="462" y="1769" type="line"/>
      <point x="667" y="1697"/>
      <point x="734" y="1471"/>
      <point x="729" y="1338" type="curve"/>
      <point x="722" y="1028"/>
      <point x="479" y="825"/>
    </contour>
  </outline>
</glyph>
<glyph name="quotedblbase" format="1">
  <advance width="1488"/>
  <unicode hex="201E"/>
  <outline>
    <contour>
      <point x="796" y="78" type="curve"/>
      <point x="796" y="155" type="line"/>
      <point x="1028" y="444" type="line"/>
      <point x="1234" y="372"/>
      <point x="1299" y="145"/>
      <point x="1294" y="12" type="curve"/>
      <point x="1288" y="-297"/>
      <point x="1044" y="-499"/>
      <point x="863" y="-567" type="curve"/>
      <point x="757" y="-473" type="line"/>
      <point x="757" y="-431" type="line"/>
      <point x="842" y="-400"/>
      <point x="954" y="-249"/>
      <point x="954" y="-121" type="curve" smooth="yes"/>
      <point x="954" y="-29"/>
      <point x="877" y="70"/>
    </contour>
    <contour>
      <point x="231" y="78" type="curve"/>
      <point x="231" y="155" type="line"/>
      <point x="464" y="444" type="line"/>
      <point x="668" y="372"/>
      <point x="736" y="145"/>
      <point x="730" y="12" type="curve"/>
      <point x="723" y="-297"/>
      <point x="480" y="-499"/>
      <point x="300" y="-567" type="curve"/>
      <point x="193" y="-473" type="line"/>
      <point x="193" y="-431" type="line"/>
      <point x="277" y="-400"/>
      <point x="390" y="-249"/>
      <point x="390" y="-121" type="curve" smooth="yes"/>
      <point x="390" y="-29"/>
      <point x="313" y="70"/>
    </contour>
  </outline>
</glyph>
<glyph name="bullet" format="1">
  <advance width="919"/>
  <unicode hex="2022"/>
  <outline>
    <contour>
      <point x="443" y="442" type="curve" smooth="yes"/>
      <point x="260" y="442"/>
      <point x="103" y="598"/>
      <point x="119" y="777" type="curve"/>
      <point x="132" y="963"/>
      <point x="294" y="1107"/>
      <point x="478" y="1107" type="curve" smooth="yes"/>
      <point x="661" y="1107"/>
      <point x="815" y="963"/>
      <point x="801" y="777" type="curve" smooth="yes"/>
      <point x="787" y="590"/>
      <point x="629" y="442"/>
    </contour>
  </outline>
</glyph>
<glyph name="guilsinglleft" format="1">
  <advance width="1283"/>
  <unicode hex="2039"/>
  <outline>
    <contour>
      <point x="229" y="452" type="line"/>
      <point x="229" y="757" type="line"/>
      <point x="968" y="1144" type="line"/>
      <point x="1054" y="1008" type="line"/>
      <point x="598" y="614" type="line"/>
      <point x="1054" y="238" type="line"/>
      <point x="968" y="90" type="line"/>
    </contour>
  </outline>
</glyph>
<glyph name="fraction" format="1">
  <advance width="1069"/>
  <unicode hex="2044"/>
  <outline>
    <contour>
      <point x="29" y="-268" type="line"/>
      <point x="825" y="1881" type="line"/>
      <point x="1039" y="1818" type="line"/>
      <point x="239" y="-343" type="line"/>
    </contour>
  </outline>
</glyph>
<glyph name="Euro" format="1">
  <advance width="1697"/>
  <unicode hex="20AC"/>
  <outline>
    <contour>
      <point x="87" y="524" type="line"/>
      <point x="87" y="691" type="line"/>
      <point x="266" y="691" type="line"/>
      <point x="266" y="714" type="line" smooth="yes"/>
      <point x="266" y="770"/>
      <point x="270" y="827"/>
      <point x="279" y="885" type="curve"/>
      <point x="117" y="885" type="line"/>
      <point x="117" y="1056" type="line"/>
      <point x="319" y="1056" type="line"/>
      <point x="411" y="1331"/>
      <point x="630" y="1567"/>
      <point x="1050" y="1567" type="curve" smooth="yes"/>
      <point x="1270" y="1567"/>
      <point x="1394" y="1468"/>
      <point x="1508" y="1496" type="curve"/>
      <point x="1490" y="1118" type="line"/>
      <point x="1332" y="1118" type="line"/>
      <point x="1260" y="1308" type="line"/>
      <point x="1196" y="1358"/>
      <point x="1105" y="1385"/>
      <point x="996" y="1385" type="curve" smooth="yes"/>
      <point x="785" y="1385"/>
      <point x="706" y="1260"/>
      <point x="679" y="1056" type="curve"/>
      <point x="1122" y="1056" type="line"/>
      <point x="1122" y="885" type="line"/>
      <point x="666" y="885" type="line"/>
      <point x="665" y="847"/>
      <point x="665" y="807"/>
      <point x="665" y="766" type="curve" smooth="yes"/>
      <point x="665" y="740"/>
      <point x="665" y="715"/>
      <point x="666" y="691" type="curve"/>
      <point x="1104" y="691" type="line"/>
      <point x="1104" y="524" type="line"/>
      <point x="679" y="524" type="line"/>
      <point x="711" y="295"/>
      <point x="805" y="147"/>
      <point x="1040" y="145" type="curve" smooth="yes"/>
      <point x="1110" y="144"/>
      <point x="1158" y="158"/>
      <point x="1193" y="178" type="curve" smooth="yes"/>
      <point x="1278" y="228"/>
      <point x="1292" y="339"/>
      <point x="1321" y="425" type="curve"/>
      <point x="1507" y="425" type="line"/>
      <point x="1507" y="63" type="line"/>
      <point x="1362" y="89"/>
      <point x="1311" y="-28"/>
      <point x="990" y="-28" type="curve" smooth="yes"/>
      <point x="620" y="-28"/>
      <point x="356" y="188"/>
      <point x="285" y="524" type="curve"/>
    </contour>
  </outline>
</glyph>
<glyph name="trademark" format="1">
  <advance width="2337"/>
  <unicode hex="2122"/>
  <outline>
    <contour>
      <point x="1011" y="777" type="line"/>
      <point x="1011" y="867" type="line"/>
      <point x="1127" y="890" type="line"/>
      <point x="1153" y="1428" type="line"/>
      <point x="1062" y="1440" type="line"/>
      <point x="1062" y="1553" type="line"/>
      <point x="1448" y="1553" type="line"/>
      <point x="1574" y="1199" type="line"/>
      <point x="1595" y="1106" type="line"/>
      <point x="1740" y="1553" type="line"/>
      <point x="2108" y="1553" type="line"/>
      <point x="2108" y="1440" type="line"/>
      <point x="2019" y="1429" type="line"/>
      <point x="2054" y="889" type="line"/>
      <point x="2154" y="866" type="line"/>
      <point x="2154" y="777" type="line"/>
      <point x="1747" y="777" type="line"/>
      <point x="1747" y="866" type="line"/>
      <point x="1821" y="885" type="line"/>
      <point x="1825" y="1231" type="line" smooth="yes"/>
      <point x="1825" y="1250"/>
      <point x="1826" y="1270"/>
      <point x="1828" y="1438" type="curve"/>
      <point x="1813" y="1365" type="line"/>
      <point x="1610" y="769" type="line"/>
      <point x="1529" y="769" type="line"/>
      <point x="1301" y="1325" type="line"/>
      <point x="1267" y="1433" type="line"/>
      <point x="1274" y="1281" type="line"/>
      <point x="1268" y="889" type="line"/>
      <point x="1361" y="867" type="line"/>
      <point x="1361" y="777" type="line"/>
    </contour>
    <contour>
      <point x="352" y="777" type="line"/>
      <point x="352" y="867" type="line"/>
      <point x="467" y="886" type="line"/>
      <point x="467" y="1426" type="line"/>
      <point x="316" y="1400" type="line"/>
      <point x="279" y="1288" type="line"/>
      <point x="183" y="1284" type="line"/>
      <point x="195" y="1553" type="line"/>
      <point x="955" y="1553" type="line"/>
      <point x="964" y="1290" type="line"/>
      <point x="878" y="1281" type="line"/>
      <point x="830" y="1407" type="line"/>
      <point x="704" y="1426" type="line"/>
      <point x="704" y="887" type="line"/>
      <point x="824" y="867" type="line"/>
      <point x="824" y="777" type="line"/>
    </contour>
  </outline>
</glyph>
<glyph name="radical" format="1">
  <advance width="1776"/>
  <unicode hex="221A"/>
  <outline>
    <contour>
      <point x="197" y="416" type="line"/>
      <point x="98" y="579" type="line"/>
      <point x="279" y="708" type="line"/>
      <point x="598" y="708" type="line"/>
      <point x="865" y="-56" type="line"/>
      <point x="873" y="-56" type="line"/>
      <point x="1454" y="1920" type="line"/>
      <point x="1677" y="1920" type="line"/>
      <point x="978" y="-354" type="line"/>
      <point x="681" y="-354" type="line"/>
      <point x="323" y="508" type="line"/>
    </contour>
  </outline>
</glyph>
<glyph name="infinity" format="1">
  <advance width="2332"/>
  <unicode hex="221E"/>
  <outline>
    <contour>
      <point x="154" y="551" type="curve" smooth="yes"/>
      <point x="148" y="794"/>
      <point x="440" y="1119"/>
      <point x="684" y="1119" type="curve" smooth="yes"/>
      <point x="938" y="1119"/>
      <point x="1084" y="967"/>
      <point x="1205" y="825" type="curve"/>
      <point x="1331" y="970"/>
      <point x="1504" y="1120"/>
      <point x="1682" y="1119" type="curve" smooth="yes"/>
      <point x="1939" y="1118"/>
      <point x="2172" y="953"/>
      <point x="2178" y="695" type="curve" smooth="yes"/>
      <point x="2184" y="452"/>
      <point x="1892" y="127"/>
      <point x="1648" y="127" type="curve" smooth="yes"/>
      <point x="1394" y="127"/>
      <point x="1247" y="278"/>
      <point x="1126" y="421" type="curve"/>
      <point x="1001" y="276"/>
      <point x="827" y="126"/>
      <point x="650" y="127" type="curve" smooth="yes"/>
      <point x="393" y="128"/>
      <point x="160" y="293"/>
    </contour>
    <contour>
      <point x="1323" y="698" type="curve"/>
      <point x="1426" y="576"/>
      <point x="1589" y="391"/>
      <point x="1739" y="391" type="curve" smooth="yes"/>
      <point x="1808" y="391"/>
      <point x="1890" y="489"/>
      <point x="1883" y="617" type="curve" smooth="yes"/>
      <point x="1875" y="761"/>
      <point x="1703" y="880"/>
      <point x="1583" y="880" type="curve" smooth="yes"/>
      <point x="1505" y="880"/>
      <point x="1410" y="812"/>
    </contour>
    <contour>
      <point x="449" y="629" type="curve" smooth="yes"/>
      <point x="457" y="485"/>
      <point x="629" y="366"/>
      <point x="749" y="366" type="curve" smooth="yes"/>
      <point x="827" y="366"/>
      <point x="921" y="434"/>
      <point x="1009" y="548" type="curve"/>
      <point x="905" y="669"/>
      <point x="743" y="855"/>
      <point x="593" y="855" type="curve" smooth="yes"/>
      <point x="524" y="855"/>
      <point x="442" y="757"/>
    </contour>
  </outline>
</glyph>
<glyph name="lozenge" format="1">
  <advance width="1334"/>
  <unicode hex="25CA"/>
  <outline>
    <contour>
      <point x="519" y="0" type="line"/>
      <point x="137" y="637" type="line"/>
      <point x="137" y="758" type="line"/>
      <point x="549" y="1416" type="line"/>
      <point x="814" y="1416" type="line"/>
      <point x="1196" y="779" type="line"/>
      <point x="1196" y="658" type="line"/>
      <point x="784" y="0" type="line"/>
    </contour>
    <contour>
      <point x="690" y="232" type="line"/>
      <point x="950" y="654" type="line"/>
      <point x="638" y="1183" type="line"/>
      <point x="382" y="762" type="line"/>
    </contour>
  </outline>
</glyph>
<glyph name="fi" format="1">
  <advance width="1694"/>
  <unicode hex="FB01"/>
  <outline>
    <contour>
      <point x="1305" y="1325" type="curve" smooth="yes"/>
      <point x="1200" y="1325"/>
      <point x="1099" y="1396"/>
      <point x="1099" y="1513" type="curve" smooth="yes"/>
      <point x="1099" y="1641"/>
      <point x="1227" y="1737"/>
      <point x="1344" y="1737" type="curve" smooth="yes"/>
      <point x="1487" y="1737"/>
      <point x="1549" y="1651"/>
      <point x="1549" y="1548" type="curve" smooth="yes"/>
      <point x="1549" y="1412"/>
      <point x="1429" y="1325"/>
    </contour>
    <contour>
      <point x="72" y="0" type="line"/>
      <point x="72" y="136" type="line"/>
      <point x="234" y="166" type="line"/>
      <point x="234" y="913" type="line"/>
      <point x="51" y="913" type="line"/>
      <point x="51" y="1018" type="line"/>
      <point x="234" y="1097" type="line"/>
      <point x="234" y="1202" type="line" smooth="yes"/>
      <point x="234" y="1436"/>
      <point x="433" y="1734"/>
      <point x="730" y="1734" type="curve" smooth="yes"/>
      <point x="799" y="1734"/>
      <point x="896" y="1723"/>
      <point x="945" y="1702" type="curve"/>
      <point x="945" y="1442" type="line"/>
      <point x="924" y="1450"/>
      <point x="811" y="1497"/>
      <point x="721" y="1497" type="curve" smooth="yes"/>
      <point x="633" y="1497"/>
      <point x="588" y="1484"/>
      <point x="588" y="1308" type="curve" smooth="yes"/>
      <point x="588" y="1119" type="line"/>
      <point x="888" y="1119" type="line"/>
      <point x="888" y="913" type="line"/>
      <point x="588" y="913" type="line"/>
      <point x="588" y="165" type="line"/>
      <point x="828" y="136" type="line"/>
      <point x="828" y="0" type="line"/>
    </contour>
    <contour>
      <point x="1025" y="0" type="line"/>
      <point x="1025" y="136" type="line"/>
      <point x="1160" y="164" type="line"/>
      <point x="1160" y="786" type="line"/>
      <point x="1032" y="930" type="line"/>
      <point x="1032" y="1023" type="line"/>
      <point x="1428" y="1151" type="line"/>
      <point x="1513" y="1126" type="line"/>
      <point x="1513" y="162" type="line"/>
      <point x="1657" y="136" type="line"/>
      <point x="1657" y="0" type="line"/>
    </contour>
  </outline>
</glyph>
<glyph name="fl" format="1">
  <advance width="1681"/>
  <unicode hex="FB02"/>
  <outline>
    <contour>
      <point x="72" y="0" type="line"/>
      <point x="72" y="136" type="line"/>
      <point x="234" y="166" type="line"/>
      <point x="234" y="913" type="line"/>
      <point x="51" y="913" type="line"/>
      <point x="51" y="1018" type="line"/>
      <point x="234" y="1097" type="line"/>
      <point x="234" y="1202" type="line" smooth="yes"/>
      <point x="234" y="1436"/>
      <point x="433" y="1734"/>
      <point x="730" y="1734" type="curve" smooth="yes"/>
      <point x="799" y="1734"/>
      <point x="896" y="1723"/>
      <point x="945" y="1702" type="curve"/>
      <point x="945" y="1442" type="line"/>
      <point x="924" y="1450"/>
      <point x="811" y="1497"/>
      <point x="721" y="1497" type="curve" smooth="yes"/>
      <point x="633" y="1497"/>
      <point x="588" y="1484"/>
      <point x="588" y="1308" type="curve" smooth="yes"/>
      <point x="588" y="1119" type="line"/>
      <point x="888" y="1119" type="line"/>
      <point x="888" y="913" type="line"/>
      <point x="588" y="913" type="line"/>
      <point x="588" y="165" type="line"/>
      <point x="828" y="136" type="line"/>
      <point x="828" y="0" type="line"/>
    </contour>
    <contour>
      <point x="1016" y="0" type="line"/>
      <point x="1016" y="136" type="line"/>
      <point x="1134" y="161" type="line"/>
      <point x="1134" y="1384" type="line"/>
      <point x="999" y="1441" type="line"/>
      <point x="999" y="1581" type="line"/>
      <point x="1430" y="1630" type="line"/>
      <point x="1488" y="1612" type="line"/>
      <point x="1488" y="166" type="line"/>
      <point x="1663" y="136" type="line"/>
      <point x="1663" y="0" type="line"/>
    </contour>
  </outline>
</glyph>
<glyph name="ffi" format="1">
  <advance width="2640"/>
  <unicode hex="FB03"/>
  <outline>
    <contour>
      <point x="2045" y="1513" type="curve" smooth="yes"/>
      <point x="2045" y="1641"/>
      <point x="2173" y="1737"/>
      <point x="2290" y="1737" type="curve" smooth="yes"/>
      <point x="2433" y="1737"/>
      <point x="2495" y="1651"/>
      <point x="2495" y="1548" type="curve" smooth="yes"/>
      <point x="2495" y="1412"/>
      <point x="2375" y="1325"/>
      <point x="2251" y="1325" type="curve" smooth="yes"/>
      <point x="2146" y="1325"/>
      <point x="2045" y="1396"/>
    </contour>
    <contour>
      <point x="1018" y="0" type="line"/>
      <point x="1018" y="136" type="line"/>
      <point x="1180" y="166" type="line"/>
      <point x="1180" y="913" type="line"/>
      <point x="997" y="913" type="line"/>
      <point x="997" y="1018" type="line"/>
      <point x="1180" y="1097" type="line"/>
      <point x="1180" y="1202" type="line" smooth="yes"/>
      <point x="1180" y="1436"/>
      <point x="1379" y="1734"/>
      <point x="1676" y="1734" type="curve" smooth="yes"/>
      <point x="1745" y="1734"/>
      <point x="1842" y="1723"/>
      <point x="1891" y="1702" type="curve"/>
      <point x="1891" y="1442" type="line"/>
      <point x="1870" y="1450"/>
      <point x="1757" y="1497"/>
      <point x="1667" y="1497" type="curve" smooth="yes"/>
      <point x="1579" y="1497"/>
      <point x="1534" y="1484"/>
      <point x="1534" y="1308" type="curve" smooth="yes"/>
      <point x="1534" y="1119" type="line"/>
      <point x="1834" y="1119" type="line"/>
      <point x="1834" y="913" type="line"/>
      <point x="1534" y="913" type="line"/>
      <point x="1534" y="165" type="line"/>
      <point x="1774" y="136" type="line"/>
      <point x="1774" y="0" type="line"/>
    </contour>
    <contour>
      <point x="72" y="0" type="line"/>
      <point x="72" y="136" type="line"/>
      <point x="234" y="166" type="line"/>
      <point x="234" y="913" type="line"/>
      <point x="51" y="913" type="line"/>
      <point x="51" y="1018" type="line"/>
      <point x="234" y="1097" type="line"/>
      <point x="234" y="1202" type="line" smooth="yes"/>
      <point x="234" y="1436"/>
      <point x="433" y="1734"/>
      <point x="730" y="1734" type="curve" smooth="yes"/>
      <point x="799" y="1734"/>
      <point x="896" y="1723"/>
      <point x="945" y="1702" type="curve"/>
      <point x="945" y="1442" type="line"/>
      <point x="924" y="1450"/>
      <point x="811" y="1497"/>
      <point x="721" y="1497" type="curve" smooth="yes"/>
      <point x="633" y="1497"/>
      <point x="588" y="1484"/>
      <point x="588" y="1308" type="curve" smooth="yes"/>
      <point x="588" y="1119" type="line"/>
      <point x="888" y="1119" type="line"/>
      <point x="888" y="913" type="line"/>
      <point x="588" y="913" type="line"/>
      <point x="588" y="165" type="line"/>
      <point x="828" y="136" type="line"/>
      <point x="828" y="0" type="line"/>
    </contour>
    <contour>
      <point x="1971" y="0" type="line"/>
      <point x="1971" y="136" type="line"/>
      <point x="2106" y="164" type="line"/>
      <point x="2106" y="786" type="line"/>
      <point x="1978" y="930" type="line"/>
      <point x="1978" y="1023" type="line"/>
      <point x="2374" y="1151" type="line"/>
      <point x="2459" y="1126" type="line"/>
      <point x="2459" y="162" type="line"/>
      <point x="2603" y="136" type="line"/>
      <point x="2603" y="0" type="line"/>
    </contour>
  </outline>
</glyph>
<glyph name="circumflex.cap" format="1">
  <advance width="1062"/>
  <outline>
    <contour>
      <point x="252" y="1597" type="line"/>
      <point x="141" y="1670" type="line"/>
      <point x="416" y="1920" type="line"/>
      <point x="648" y="1920" type="line"/>
      <point x="918" y="1670" type="line"/>
      <point x="806" y="1597" type="line"/>
      <point x="534" y="1726" type="line"/>
    </contour>
  </outline>
</glyph>
<glyph name="hungarumlaut.cap" format="1">
  <advance width="1081"/>
  <outline>
    <contour>
      <point x="625" y="1481" type="curve"/>
      <point x="538" y="1567" type="line"/>
      <point x="836" y="1920" type="line"/>
      <point x="1066" y="1706" type="line"/>
      <point x="914" y="1535"/>
      <point x="692" y="1472"/>
    </contour>
    <contour>
      <point x="104" y="1481" type="curve"/>
      <point x="15" y="1567" type="line"/>
      <point x="314" y="1920" type="line"/>
      <point x="542" y="1706" type="line"/>
      <point x="391" y="1535"/>
      <point x="169" y="1472"/>
    </contour>
  </outline>
</glyph>
<glyph name="ogonek.cap" format="1">
  <advance width="769"/>
  <outline>
    <contour>
      <point x="153" y="0" type="curve"/>
      <point x="258" y="6" type="line"/>
      <point x="397" y="0" type="line"/>
      <point x="261" y="-35"/>
      <point x="129" y="-143"/>
      <point x="111" y="-195" type="curve" smooth="yes"/>
      <point x="79" y="-286"/>
      <point x="131" y="-297"/>
      <point x="175" y="-298" type="curve" smooth="yes"/>
      <point x="241" y="-301"/>
      <point x="313" y="-271"/>
      <point x="373" y="-244" type="curve"/>
      <point x="408" y="-378" type="line"/>
      <point x="295" y="-475"/>
      <point x="151" y="-514"/>
      <point x="-6" y="-514" type="curve" smooth="yes"/>
      <point x="-160" y="-514"/>
      <point x="-214" y="-427"/>
      <point x="-219" y="-351" type="curve" smooth="yes"/>
      <point x="-224" y="-256"/>
      <point x="-89" y="-85"/>
    </contour>
  </outline>
</glyph>
